SplineFontDB: 1.0
FontName: ScidbSymbolOle!
FullName: Scidb Symbol Ole!
FamilyName: Scidb Symbol Ole!
Weight: Medium
Copyright: (C) Copyright 1993 ChessOle! - Frank David - 37081 Göttingen - Germany
Version: 1.0
ItalicAngle: 0
UnderlinePosition: -150
UnderlineWidth: 10
Ascent: 800
Descent: 200
Order2: 1
XUID: [1021 555 146130107 10948272]
FSType: 0
OS2Version: 0
OS2_WeightWidthSlopeOnly: 0
OS2_UseTypoMetrics: 1
CreationTime: 1040916237
ModificationTime: 1040916237
PfmFamily: 81
TTFWeight: 500
TTFWidth: 5
LineGap: 0
VLineGap: 0
Panose: 5 0 6 0 0 0 0 0 0 0
OS2TypoAscent: -276
OS2TypoAOffset: 1
OS2TypoDescent: 137
OS2TypoDOffset: 1
OS2TypoLinegap: 0
OS2WinAscent: 0
OS2WinAOffset: 1
OS2WinDescent: 0
OS2WinDOffset: 1
HheadAscent: -386
HheadAOffset: 1
HheadDescent: 0
HheadDOffset: 1
OS2SubXSize: 500
OS2SubYSize: 500
OS2SubXOff: 0
OS2SubYOff: -500
OS2SupXSize: 500
OS2SupYSize: 500
OS2SupXOff: 0
OS2SupYOff: 250
OS2StrikeYSize: 50
OS2StrikeYPos: 250
OS2Vendor: 'DTPS'
ScriptLang: 1
 1 latn 1 dflt 
TtfTable: prep 12
\,Z[_\H2^3!0)[4
EndTtf
TtfTable: fpgm 458
ZigI4!<=Yn7NcAQA?Z.^7NcAQA5ZMS+Kthj68.+14Kno;YQ.$D(Heo(.N:%F!$afH4Kno;YQ.&G
(Heo(.Tn>SbUk@X&f3P[/5*35:foh!+^$BJZiC(+!!XdS"t$PS.kL`$\,Z[`9=Os):fst'!KL<m
!WRk`!(7j<!!E9(?X>=o!!Xts+@U!4YQ8,`\,Zab\,Z^_+YC2(#V7)fYQH1@;HP/H+Gq;!8S!]$
7NcAQA?Z1_7NcAQA5ZMSAVsVD+KtiE=D8n^!*!&DYWu>1BcsV[<*1<J5\4)$3\@iA#qR2gYQQ7A
;HP0$=Wg0VC11YW"=6M[C11XN=<i]+0E!K4!"(8M+Ktqp:fpRsY^f+\YWtTZ)^-@I7BjR(=KoS/
)^/?e/[tcg/0H'(Bgf0+?m$R\I;'NdYQ8,`\,Zpg\,Zmd/[tci/5%+i""$rKY^d[s5Zru%+Ktqp
;ck7fYeZ-R)i>kC+Ktqp;ck7f\,cSeMAqEt=WjpN-<""k+h.P<MM`@1,?Z/!!!=QH=KhlR7CWAK
:fnqc\,h+)+WIWf,t0%%,9^2/+^%2b\,[!i92eq]6lR9m=Y0UR
EndTtf
TtfTable: cvt  26
zzzzzz!#,D5
EndTtf
TtfTable: maxp 32
!!*'"!8.Ac!#,D5!!!!"!!<3(!"T&0!WW>oz
EndTtf
LangName: 1033 "" "" "" "FONTLAB30:TTEXPORT" "" "" "" "Created by Type-Designer 2.0" "" "" "" "" "" "" "" "" "ChessOle!Figurin" "Medium" 
Encoding: UnicodeBmp
UnicodeInterp: none
NameList: Adobe Glyph List
DisplaySize: -24
AntiAlias: 1
FitToEm: 1

StartChar: .notdef
Encoding: 65536 -1 0
Width: 502
Flags: W
Fore
-1 0 m 1,0,-1
 499 0 l 1,1,-1
 499 500 l 1,2,-1
 -1 500 l 1,3,-1
 -1 0 l 1,0,-1
9 10 m 1,4,-1
 9 490 l 1,5,-1
 489 490 l 1,6,-1
 489 10 l 1,7,-1
 9 10 l 1,4,-1
EndSplineSet
EndChar
StartChar: numbersign
Encoding: 35 35 4
Width: 500
Flags: W
Fore
192 466 m 1,0,-1
 202 673 l 1,1,-1
 155 673 l 1,2,-1
 143 466 l 1,3,-1
 40 466 l 1,4,-1
 38 420 l 1,5,-1
 142 420 l 1,6,-1
 133 238 l 1,7,-1
 27 238 l 1,8,-1
 24 192 l 1,9,-1
 132 192 l 1,10,-1
 121 -16 l 1,11,-1
 170 -16 l 1,12,-1
 180 192 l 1,13,-1
 309 192 l 1,14,-1
 300 -16 l 1,15,-1
 348 -16 l 1,16,-1
 357 192 l 1,17,-1
 465 192 l 1,18,-1
 467 238 l 1,19,-1
 360 238 l 1,20,-1
 368 420 l 1,21,-1
 474 420 l 1,22,-1
 477 466 l 1,23,-1
 370 466 l 1,24,-1
 381 673 l 1,25,-1
 332 673 l 1,26,-1
 322 466 l 1,27,-1
 192 466 l 1,0,-1
319 420 m 1,28,-1
 311 238 l 1,29,-1
 182 238 l 1,30,-1
 191 420 l 1,31,-1
 319 420 l 1,28,-1
EndSplineSet
EndChar
StartChar: dollar
Encoding: 36 36 5
Width: 585
Flags: W
Fore
14 56 m 1,0,-1
 14 1 l 1,1,-1
 575 1 l 1,2,-1
 575 56 l 1,3,-1
 575 562 l 1,4,-1
 520 562 l 1,5,-1
 520 56 l 1,6,-1
 14 56 l 1,0,-1
EndSplineSet
EndChar
StartChar: percent
Encoding: 37 37 6
Width: 323
Flags: W
Fore
227 673 m 1,0,-1
 227 0 l 1,1,-1
 297 0 l 1,2,-1
 297 673 l 1,3,-1
 227 673 l 1,0,-1
27 673 m 1,4,-1
 27 0 l 1,5,-1
 97 0 l 1,6,-1
 97 673 l 1,7,-1
 27 673 l 1,4,-1
EndSplineSet
EndChar
StartChar: ampersand
Encoding: 38 38 7
Width: 585
Flags: W
Fore
575 56 m 1,0,-1
 14 56 l 1,1,-1
 14 1 l 1,2,-1
 575 1 l 1,3,-1
 575 56 l 1,0,-1
EndSplineSet
EndChar
StartChar: plus
Encoding: 43 43 12
Width: 643
Flags: W
Fore
270 533 m 1,0,-1
 270 298 l 1,1,-1
 33 298 l 1,2,-1
 33 243 l 1,3,-1
 270 243 l 1,4,-1
 270 0 l 1,5,-1
 325 0 l 1,6,-1
 325 243 l 1,7,-1
 562 243 l 1,8,-1
 562 298 l 1,9,-1
 325 298 l 1,10,-1
 325 533 l 1,11,-1
 270 533 l 1,0,-1
EndSplineSet
EndChar
StartChar: hyphen
Encoding: 45 45 14
Width: 611
Flags: W
Fore
36 243 m 1,0,-1
 560 243 l 1,1,-1
 560 298 l 1,2,-1
 36 298 l 1,3,-1
 36 243 l 1,0,-1
EndSplineSet
EndChar
StartChar: period
Encoding: 46 46 15
Width: 250
Flags: W
Fore
125 -17 m 256,0,1
 148 -17 148 -17 164.5 -0.5 c 128,-1,2
 181 16 181 16 181 39 c 256,3,4
 181 62 181 62 164.5 78.5 c 128,-1,5
 148 95 148 95 125 95 c 256,6,7
 102 95 102 95 85.5 78.5 c 128,-1,8
 69 62 69 62 69 39 c 256,9,10
 69 16 69 16 85.5 -0.5 c 128,-1,11
 102 -17 102 -17 125 -17 c 256,0,1
EndSplineSet
EndChar
StartChar: zero
Encoding: 48 48 17
Width: 549
Flags: W
Fore
10 408 m 1,0,-1
 10 353 l 1,1,-1
 247 353 l 1,2,-1
 247 116 l 1,3,-1
 302 116 l 1,4,-1
 302 353 l 1,5,-1
 539 353 l 1,6,-1
 539 408 l 1,7,-1
 302 408 l 1,8,-1
 302 645 l 1,9,-1
 247 645 l 1,10,-1
 247 408 l 1,11,-1
 10 408 l 1,0,-1
539 0 m 1,12,-1
 539 55 l 1,13,-1
 10 55 l 1,14,-1
 10 0 l 1,15,-1
 539 0 l 1,12,-1
EndSplineSet
EndChar
StartChar: one
Encoding: 49 49 18
Width: 549
Flags: W
Fore
536 54 m 1,0,-1
 10 54 l 1,1,-1
 10 -1 l 1,2,-1
 536 -1 l 1,3,-1
 536 54 l 1,0,-1
10 598 m 1,4,-1
 10 543 l 1,5,-1
 247 543 l 1,6,-1
 247 306 l 1,7,-1
 302 306 l 1,8,-1
 302 543 l 1,9,-1
 539 543 l 1,10,-1
 539 598 l 1,11,-1
 302 598 l 1,12,-1
 302 835 l 1,13,-1
 247 835 l 1,14,-1
 247 598 l 1,15,-1
 10 598 l 1,4,-1
539 190 m 1,16,-1
 539 245 l 1,17,-1
 10 245 l 1,18,-1
 10 190 l 1,19,-1
 539 190 l 1,16,-1
EndSplineSet
EndChar
StartChar: two
Encoding: 50 50 19
Width: 549
Flags: W
Fore
539 647 m 1,0,-1
 10 647 l 1,1,-1
 10 592 l 1,2,-1
 539 592 l 1,3,-1
 539 647 l 1,0,-1
10 239 m 1,4,-1
 247 239 l 1,5,-1
 247 2 l 1,6,-1
 302 2 l 1,7,-1
 302 239 l 1,8,-1
 539 239 l 1,9,-1
 539 294 l 1,10,-1
 302 294 l 1,11,-1
 302 531 l 1,12,-1
 247 531 l 1,13,-1
 247 294 l 1,14,-1
 10 294 l 1,15,-1
 10 239 l 1,4,-1
536 783 m 1,16,-1
 536 838 l 1,17,-1
 10 838 l 1,18,-1
 10 783 l 1,19,-1
 536 783 l 1,16,-1
EndSplineSet
EndChar
StartChar: three
Encoding: 51 51 20
Width: 549
Flags: W
Fore
539 650 m 1,0,-1
 10 650 l 1,1,-1
 10 595 l 1,2,-1
 539 595 l 1,3,-1
 539 650 l 1,0,-1
10 242 m 1,4,-1
 247 242 l 1,5,-1
 247 5 l 1,6,-1
 302 5 l 1,7,-1
 302 242 l 1,8,-1
 539 242 l 1,9,-1
 539 297 l 1,10,-1
 302 297 l 1,11,-1
 302 534 l 1,12,-1
 247 534 l 1,13,-1
 247 297 l 1,14,-1
 10 297 l 1,15,-1
 10 242 l 1,4,-1
EndSplineSet
EndChar
StartChar: four
Encoding: 52 52 21
Width: 713
Flags: W
Fore
388 437 m 1,0,1
 394 443 394 443 398 447 c 0,2,3
 441 488 441 488 462 503 c 128,-1,4
 483 518 483 518 520 526 c 0,5,6
 531 529 531 529 542 529 c 0,7,8
 579 529 579 529 607 504.5 c 128,-1,9
 635 480 635 480 636 442 c 0,10,11
 636 409 636 409 611.5 379 c 128,-1,12
 587 349 587 349 546 349 c 0,13,14
 527 349 527 349 507 356 c 0,15,16
 483 365 483 365 458 382 c 128,-1,17
 433 399 433 399 388 437 c 1,0,1
322 437 m 1,18,19
 277 399 277 399 252 382 c 128,-1,20
 227 365 227 365 203 356 c 0,21,22
 183 349 183 349 164 349 c 0,23,24
 123 349 123 349 98.5 379 c 128,-1,25
 74 409 74 409 74 442 c 0,26,27
 75 479 75 479 103 504 c 128,-1,28
 131 529 131 529 168 529 c 0,29,30
 179 529 179 529 190 526 c 0,31,32
 227 518 227 518 248 503 c 128,-1,33
 269 488 269 488 312 447 c 0,34,35
 316 443 316 443 322 437 c 1,18,19
355 404 m 1,36,37
 382 380 382 380 397.5 366.5 c 128,-1,38
 413 353 413 353 426 343.5 c 128,-1,39
 439 334 439 334 452.5 326 c 128,-1,40
 466 318 466 318 484 310 c 0,41,42
 514 297 514 297 545 297 c 0,43,44
 599 297 599 297 640 333.5 c 128,-1,45
 681 370 681 370 686 422 c 0,46,47
 686 428 l 0,48,49
 687 433 687 433 687 435 c 0,50,51
 687 460 687 460 677 485.5 c 128,-1,52
 667 511 667 511 649 531.5 c 128,-1,53
 631 552 631 552 606 564.5 c 128,-1,54
 581 577 581 577 552 577 c 1,55,56
 546 576 l 2,57,58
 542 576 542 576 539 576 c 0,59,60
 483 571 483 571 443.5 545 c 128,-1,61
 404 519 404 519 369 483 c 0,62,63
 359 473 359 473 355 470 c 1,64,65
 351 473 351 473 341 483 c 0,66,67
 306 520 306 520 267 545.5 c 128,-1,68
 228 571 228 571 171 576 c 0,69,70
 165 576 l 0,71,72
 159 577 159 577 158 577 c 0,73,74
 130 577 130 577 105 564.5 c 128,-1,75
 80 552 80 552 61.5 531.5 c 128,-1,76
 43 511 43 511 33 485.5 c 128,-1,77
 23 460 23 460 23 435 c 0,78,79
 23 433 23 433 24 428 c 0,80,81
 24 422 l 0,82,83
 29 370 29 370 70 333.5 c 128,-1,84
 111 297 111 297 165 297 c 0,85,86
 196 297 196 297 226 310 c 0,87,88
 244 318 244 318 257 325.5 c 128,-1,89
 270 333 270 333 283.5 343 c 128,-1,90
 297 353 297 353 311.5 365.5 c 128,-1,91
 326 378 326 378 355 404 c 1,36,37
688 204 m 1,92,-1
 688 259 l 1,93,-1
 24 259 l 1,94,-1
 24 204 l 1,95,-1
 688 204 l 1,92,-1
688 68 m 1,96,-1
 24 68 l 1,97,-1
 24 13 l 1,98,-1
 688 13 l 1,99,-1
 688 68 l 1,96,-1
EndSplineSet
EndChar
StartChar: five
Encoding: 53 53 22
Width: 713
Flags: W
Fore
357 297 m 1,0,1
 328 324 328 324 314.5 335.5 c 128,-1,2
 301 347 301 347 287.5 357 c 128,-1,3
 274 367 274 367 260.5 375 c 128,-1,4
 247 383 247 383 228 391 c 0,5,6
 198 404 198 404 167 404 c 0,7,8
 112 404 112 404 72 367.5 c 128,-1,9
 32 331 32 331 26 279 c 0,10,11
 26 273 l 1,12,13
 25 269 25 269 25 266 c 0,14,15
 25 241 25 241 35 215.5 c 128,-1,16
 45 190 45 190 63.5 169.5 c 128,-1,17
 82 149 82 149 107 136.5 c 128,-1,18
 132 124 132 124 160 124 c 1,19,20
 167 125 l 2,21,22
 173 125 l 0,23,24
 230 131 230 131 269 156.5 c 128,-1,25
 308 182 308 182 343 218 c 0,26,27
 353 228 353 228 357 231 c 1,28,29
 361 228 361 228 371 218 c 0,30,31
 407 182 407 182 446 156.5 c 128,-1,32
 485 131 485 131 541 125 c 0,33,34
 544 125 544 125 548 125 c 0,35,36
 553 124 553 124 554 124 c 0,37,38
 583 124 583 124 608 136.5 c 128,-1,39
 633 149 633 149 651 169.5 c 128,-1,40
 669 190 669 190 679 215.5 c 128,-1,41
 689 241 689 241 689 266 c 0,42,43
 689 269 689 269 688 273 c 1,44,45
 688 279 l 0,46,47
 683 331 683 331 642.5 367.5 c 128,-1,48
 602 404 602 404 547 404 c 0,49,50
 516 404 516 404 486 391 c 0,51,52
 468 383 468 383 454.5 375 c 128,-1,53
 441 367 441 367 426.5 356.5 c 128,-1,54
 412 346 412 346 397.5 333.5 c 128,-1,55
 383 321 383 321 357 297 c 1,0,1
324 264 m 1,56,57
 318 259 318 259 314 255 c 0,58,59
 271 213 271 213 250 198.5 c 128,-1,60
 229 184 229 184 192 175 c 0,61,62
 181 172 181 172 170 172 c 0,63,64
 133 172 133 172 105 197 c 128,-1,65
 77 222 77 222 76 259 c 0,66,67
 76 292 76 292 100.5 322 c 128,-1,68
 125 352 125 352 166 352 c 0,69,70
 185 352 185 352 205 345 c 0,71,72
 230 336 230 336 254 319.5 c 128,-1,73
 278 303 278 303 324 264 c 1,56,57
390 264 m 1,74,75
 436 303 436 303 460.5 319.5 c 128,-1,76
 485 336 485 336 509 345 c 0,77,78
 529 352 529 352 548 352 c 0,79,80
 589 352 589 352 613.5 322 c 128,-1,81
 638 292 638 292 638 259 c 0,82,83
 637 222 637 222 609 197 c 128,-1,84
 581 172 581 172 544 172 c 0,85,86
 533 172 533 172 522 175 c 0,87,88
 485 184 485 184 464 198.5 c 128,-1,89
 443 213 443 213 400 255 c 0,90,91
 396 259 396 259 390 264 c 1,74,75
EndSplineSet
EndChar
StartChar: six
Encoding: 54 54 23
Width: 713
Flags: W
Fore
688 513 m 1,0,-1
 688 568 l 1,1,-1
 24 568 l 1,2,-1
 24 513 l 1,3,-1
 688 513 l 1,0,-1
688 377 m 1,4,-1
 24 377 l 1,5,-1
 24 322 l 1,6,-1
 688 322 l 1,7,-1
 688 377 l 1,4,-1
355 177 m 1,8,9
 326 204 326 204 312.5 215.5 c 128,-1,10
 299 227 299 227 285.5 237 c 128,-1,11
 272 247 272 247 258.5 255 c 128,-1,12
 245 263 245 263 226 271 c 0,13,14
 196 284 196 284 165 284 c 0,15,16
 110 284 110 284 70 247.5 c 128,-1,17
 30 211 30 211 24 159 c 0,18,19
 24 153 l 1,20,21
 23 149 23 149 23 146 c 0,22,23
 23 121 23 121 33 95.5 c 128,-1,24
 43 70 43 70 61.5 49.5 c 128,-1,25
 80 29 80 29 105 16.5 c 128,-1,26
 130 4 130 4 158 4 c 1,27,28
 165 5 l 2,29,30
 171 5 l 0,31,32
 228 11 228 11 267 36.5 c 128,-1,33
 306 62 306 62 341 98 c 0,34,35
 351 108 351 108 355 111 c 1,36,37
 359 108 359 108 369 98 c 0,38,39
 405 62 405 62 444 36.5 c 128,-1,40
 483 11 483 11 539 5 c 0,41,42
 542 5 542 5 546 5 c 0,43,44
 551 4 551 4 552 4 c 0,45,46
 581 4 581 4 606 16.5 c 128,-1,47
 631 29 631 29 649 49.5 c 128,-1,48
 667 70 667 70 677 95.5 c 128,-1,49
 687 121 687 121 687 146 c 0,50,51
 687 149 687 149 686 153 c 1,52,53
 686 159 l 0,54,55
 681 211 681 211 640.5 247.5 c 128,-1,56
 600 284 600 284 545 284 c 0,57,58
 514 284 514 284 484 271 c 0,59,60
 466 263 466 263 452.5 255 c 128,-1,61
 439 247 439 247 424.5 236.5 c 128,-1,62
 410 226 410 226 395.5 213.5 c 128,-1,63
 381 201 381 201 355 177 c 1,8,9
322 144 m 1,64,65
 316 139 316 139 312 135 c 0,66,67
 269 93 269 93 248 78.5 c 128,-1,68
 227 64 227 64 190 55 c 0,69,70
 179 52 179 52 168 52 c 0,71,72
 131 52 131 52 103 77 c 128,-1,73
 75 102 75 102 74 139 c 0,74,75
 74 172 74 172 98.5 202 c 128,-1,76
 123 232 123 232 164 232 c 0,77,78
 183 232 183 232 203 225 c 0,79,80
 228 216 228 216 252 199.5 c 128,-1,81
 276 183 276 183 322 144 c 1,64,65
388 144 m 1,82,83
 434 183 434 183 458.5 199.5 c 128,-1,84
 483 216 483 216 507 225 c 0,85,86
 527 232 527 232 546 232 c 0,87,88
 587 232 587 232 611.5 202 c 128,-1,89
 636 172 636 172 636 139 c 0,90,91
 635 102 635 102 607 77 c 128,-1,92
 579 52 579 52 542 52 c 0,93,94
 531 52 531 52 520 55 c 0,95,96
 483 64 483 64 462 78.5 c 128,-1,97
 441 93 441 93 398 135 c 0,98,99
 394 139 394 139 388 144 c 1,82,83
EndSplineSet
EndChar
StartChar: seven
Encoding: 55 55 24
Width: 669
Flags: W
Fore
408 178 m 1,0,-1
 408 104 l 1,1,-1
 57 104 l 1,2,-1
 57 307 l 1,3,-1
 215 307 l 1,4,-1
 215 178 l 1,5,-1
 408 178 l 1,0,-1
451 178 m 1,6,-1
 653 178 l 1,7,-1
 653 469 l 1,8,-1
 215 469 l 1,9,-1
 215 351 l 1,10,-1
 13 351 l 1,11,-1
 13 60 l 1,12,-1
 451 60 l 1,13,-1
 451 178 l 1,6,-1
451 222 m 1,14,-1
 451 351 l 1,15,-1
 259 351 l 1,16,-1
 259 425 l 1,17,-1
 609 425 l 1,18,-1
 609 222 l 1,19,-1
 451 222 l 1,14,-1
408 222 m 1,20,-1
 259 222 l 1,21,-1
 259 307 l 1,22,-1
 408 307 l 1,23,-1
 408 222 l 1,20,-1
EndSplineSet
EndChar
StartChar: eight
Encoding: 56 56 25
Width: 669
Flags: W
Fore
408 178 m 1,0,-1
 408 104 l 1,1,-1
 57 104 l 1,2,-1
 57 307 l 1,3,-1
 215 307 l 1,4,-1
 215 178 l 1,5,-1
 408 178 l 1,0,-1
451 178 m 1,6,-1
 653 178 l 1,7,-1
 653 469 l 1,8,-1
 215 469 l 1,9,-1
 215 351 l 1,10,-1
 13 351 l 1,11,-1
 13 60 l 1,12,-1
 451 60 l 1,13,-1
 451 178 l 1,6,-1
EndSplineSet
EndChar
StartChar: nine
Encoding: 57 57 26
Width: 669
Flags: W
Fore
451 178 m 1,0,-1
 653 178 l 1,1,-1
 653 469 l 1,2,-1
 215 469 l 1,3,-1
 215 351 l 1,4,-1
 13 351 l 1,5,-1
 13 60 l 1,6,-1
 451 60 l 1,7,-1
 451 178 l 1,0,-1
EndSplineSet
EndChar
StartChar: colon
Encoding: 58 58 27
Width: 1042
Flags: W
Fore
241 381 m 1,0,-1
 317 476 l 1,1,-1
 277 510 l 1,2,3
 227 451 227 451 205.5 425.5 c 128,-1,4
 184 400 184 400 159 373 c 128,-1,5
 134 346 134 346 103.5 316.5 c 128,-1,6
 73 287 73 287 27 245 c 1,7,8
 73 203 73 203 102.5 174 c 128,-1,9
 132 145 132 145 158 117.5 c 128,-1,10
 184 90 184 90 208 61.5 c 128,-1,11
 232 33 232 33 277 -20 c 1,12,-1
 317 14 l 1,13,-1
 241 109 l 1,14,-1
 809 109 l 1,15,-1
 733 14 l 1,16,-1
 773 -20 l 1,17,18
 820 35 820 35 844 63.5 c 128,-1,19
 868 92 868 92 893 118.5 c 128,-1,20
 918 145 918 145 948.5 175 c 128,-1,21
 979 205 979 205 1023 245 c 1,22,23
 979 285 979 285 948.5 315 c 128,-1,24
 918 345 918 345 892.5 372.5 c 128,-1,25
 867 400 867 400 841 430 c 128,-1,26
 815 460 815 460 773 510 c 1,27,-1
 733 476 l 1,28,-1
 809 381 l 1,29,-1
 241 381 l 1,0,-1
197 159 m 1,30,-1
 113 245 l 1,31,-1
 197 331 l 1,32,-1
 854 331 l 1,33,-1
 938 245 l 1,34,-1
 854 159 l 1,35,-1
 197 159 l 1,30,-1
EndSplineSet
EndChar
StartChar: semicolon
Encoding: 59 59 28
Width: 915
Flags: W
Fore
857 410 m 1,0,1
 857 419 857 419 857 454 c 0,2,3
 856 479 856 479 856 489 c 0,4,5
 856 527 856 527 857.5 561.5 c 128,-1,6
 859 596 859 596 861 629.5 c 128,-1,7
 863 663 863 663 867.5 709 c 128,-1,8
 872 755 872 755 878 804 c 1,9,10
 769 792 769 792 707 787.5 c 128,-1,11
 645 783 645 783 577 783 c 0,12,13
 564 783 564 783 535 783 c 0,14,15
 503 784 503 784 484 784 c 1,16,-1
 474 727 l 1,17,-1
 607 722 l 1,18,-1
 27 144 l 1,19,-1
 64 106 l 1,20,-1
 684 724 l 1,21,-1
 808 734 l 1,22,-1
 797 610 l 1,23,-1
 177 -7 l 1,24,-1
 214 -45 l 1,25,-1
 795 533 l 1,26,-1
 800 399 l 1,27,-1
 857 410 l 1,0,1
EndSplineSet
EndChar
StartChar: less
Encoding: 60 60 29
Width: 486
Flags: W
Fore
462 788 m 1,0,-1
 411 810 l 1,1,-1
 181 405 l 1,2,-1
 411 0 l 1,3,-1
 462 22 l 1,4,-1
 244 405 l 1,5,-1
 462 788 l 1,0,-1
306 788 m 1,6,-1
 255 810 l 1,7,-1
 25 405 l 1,8,-1
 255 0 l 1,9,-1
 306 22 l 1,10,-1
 88 405 l 1,11,-1
 306 788 l 1,6,-1
EndSplineSet
EndChar
StartChar: equal
Encoding: 61 61 30
Width: 549
Flags: W
Fore
537 390 m 1,0,-1
 11 390 l 1,1,-1
 11 335 l 1,2,-1
 537 335 l 1,3,-1
 537 390 l 1,0,-1
537 196 m 1,4,-1
 11 196 l 1,5,-1
 11 141 l 1,6,-1
 537 141 l 1,7,-1
 537 196 l 1,4,-1
EndSplineSet
EndChar
StartChar: greater
Encoding: 62 62 31
Width: 469
Flags: W
Fore
12 788 m 1,0,-1
 230 405 l 1,1,-1
 12 22 l 1,2,-1
 63 0 l 1,3,-1
 293 405 l 1,4,-1
 63 810 l 1,5,-1
 12 788 l 1,0,-1
168 788 m 1,6,-1
 386 405 l 1,7,-1
 168 22 l 1,8,-1
 219 0 l 1,9,-1
 449 405 l 1,10,-1
 219 810 l 1,11,-1
 168 788 l 1,6,-1
EndSplineSet
EndChar
StartChar: B
Encoding: 66 66 35
Width: 1000
Flags: W
Fore
800 0 m 1,0,1
 803 22 803 22 803 44 c 0,2,3
 803 91 803 91 792 133.5 c 128,-1,4
 781 176 781 176 764.5 209.5 c 128,-1,5
 748 243 748 243 731 265.5 c 128,-1,6
 714 288 714 288 700 300 c 0,7,8
 672 326 672 326 644 342 c 128,-1,9
 616 358 616 358 590 360 c 1,10,11
 639 376 639 376 659.5 407 c 128,-1,12
 680 438 680 438 680 500 c 0,13,14
 680 551 680 551 638.5 589 c 128,-1,15
 597 627 597 627 540 630 c 1,16,17
 568 637 568 637 580.5 663.5 c 128,-1,18
 593 690 593 690 593 722 c 0,19,20
 592 758 592 758 563.5 779 c 128,-1,21
 535 800 535 800 500 800 c 256,22,23
 465 800 465 800 436.5 779 c 128,-1,24
 408 758 408 758 407 722 c 0,25,26
 407 690 407 690 419.5 663.5 c 128,-1,27
 432 637 432 637 460 630 c 1,28,29
 403 627 403 627 361.5 589 c 128,-1,30
 320 551 320 551 320 500 c 0,31,32
 320 438 320 438 340.5 407 c 128,-1,33
 361 376 361 376 410 360 c 1,34,35
 384 358 384 358 356 342 c 128,-1,36
 328 326 328 326 300 300 c 0,37,38
 287 289 287 289 269.5 265.5 c 128,-1,39
 252 242 252 242 235.5 209 c 128,-1,40
 219 176 219 176 208.5 133.5 c 128,-1,41
 198 91 198 91 198 44 c 0,42,43
 198 22 198 22 200 0 c 1,44,-1
 800 0 l 1,0,1
EndSplineSet
EndChar
StartChar: D
Encoding: 68 68 37
Width: 1000
Flags: W
Fore
885 607 m 1,0,-1
 722 328 l 1,1,-1
 702 678 l 1,2,-1
 692 681 l 1,3,-1
 571 345 l 1,4,-1
 504 714 l 1,5,-1
 496 714 l 1,6,-1
 429 345 l 1,7,-1
 308 681 l 1,8,-1
 299 678 l 1,9,-1
 278 328 l 1,10,-1
 277 331 l 1,11,-1
 115 607 l 1,12,-1
 106 604 l 1,13,-1
 168 295 l 1,14,-1
 243 210 l 1,15,-1
 263 121 l 1,16,-1
 223 36 l 1,17,18
 236 16 236 16 309 0 c 0,19,20
 353 -7 353 -7 394 -9 c 128,-1,21
 435 -11 435 -11 500 -11 c 256,22,23
 565 -11 565 -11 606 -9 c 128,-1,24
 647 -7 647 -7 691 0 c 0,25,26
 764 16 764 16 777 36 c 1,27,-1
 737 121 l 1,28,-1
 757 210 l 1,29,-1
 832 295 l 1,30,-1
 894 603 l 1,31,-1
 885 607 l 1,0,-1
500 64 m 256,32,33
 481 64 481 64 451.5 60 c 128,-1,34
 422 56 422 56 386 49.5 c 128,-1,35
 350 43 350 43 317 35 c 128,-1,36
 284 27 284 27 262 20 c 1,37,-1
 241 55 l 1,38,39
 255 63 255 63 288.5 72 c 128,-1,40
 322 81 322 81 363.5 89 c 128,-1,41
 405 97 405 97 441.5 102 c 128,-1,42
 478 107 478 107 500 107 c 256,43,44
 522 107 522 107 558.5 102 c 128,-1,45
 595 97 595 97 637 88.5 c 128,-1,46
 679 80 679 80 712 71.5 c 128,-1,47
 745 63 745 63 759 55 c 1,48,-1
 738 20 l 1,49,50
 714 28 714 28 682 35.5 c 128,-1,51
 650 43 650 43 614.5 49.5 c 128,-1,52
 579 56 579 56 549 60 c 128,-1,53
 519 64 519 64 500 64 c 256,32,33
723 144 m 1,54,-1
 723 102 l 1,55,56
 706 112 706 112 677 121 c 128,-1,57
 648 130 648 130 616 137.5 c 128,-1,58
 584 145 584 145 553 149 c 128,-1,59
 522 153 522 153 500 153 c 256,60,61
 478 153 478 153 447 149 c 128,-1,62
 416 145 416 145 384 137.5 c 128,-1,63
 352 130 352 130 323 121 c 128,-1,64
 294 112 294 112 277 102 c 1,65,-1
 277 144 l 1,66,67
 294 154 294 154 323 163.5 c 128,-1,68
 352 173 352 173 384.5 180 c 128,-1,69
 417 187 417 187 447.5 191.5 c 128,-1,70
 478 196 478 196 500 196 c 256,71,72
 522 196 522 196 552.5 192 c 128,-1,73
 583 188 583 188 616 180.5 c 128,-1,74
 649 173 649 173 677.5 163.5 c 128,-1,75
 706 154 706 154 723 144 c 1,54,-1
746 228 m 1,76,-1
 746 186 l 1,77,78
 699 208 699 208 629 223 c 128,-1,79
 559 238 559 238 500 238 c 256,80,81
 441 238 441 238 371 223 c 128,-1,82
 301 208 301 208 254 186 c 1,83,-1
 254 228 l 1,84,85
 300 250 300 250 370 265 c 128,-1,86
 440 280 440 280 500 280 c 256,87,88
 560 280 560 280 630 265 c 128,-1,89
 700 250 700 250 746 228 c 1,76,-1
100 605 m 256,90,91
 119 605 119 605 134.5 620 c 128,-1,92
 150 635 150 635 150 652 c 0,93,94
 150 670 150 670 134.5 684.5 c 128,-1,95
 119 699 119 699 100 699 c 256,96,97
 81 699 81 699 65.5 684.5 c 128,-1,98
 50 670 50 670 50 652 c 0,99,100
 50 635 50 635 65.5 620 c 128,-1,101
 81 605 81 605 100 605 c 256,90,91
288 677 m 256,102,103
 307 677 307 677 322.5 691.5 c 128,-1,104
 338 706 338 706 338 724 c 0,105,106
 338 741 338 741 322.5 755.5 c 128,-1,107
 307 770 307 770 288 770 c 256,108,109
 269 770 269 770 253.5 755.5 c 128,-1,110
 238 741 238 741 238 724 c 0,111,112
 238 706 238 706 253.5 691.5 c 128,-1,113
 269 677 269 677 288 677 c 256,102,103
712 677 m 256,114,115
 731 677 731 677 746.5 691.5 c 128,-1,116
 762 706 762 706 762 724 c 0,117,118
 762 741 762 741 746.5 755.5 c 128,-1,119
 731 770 731 770 712 770 c 256,120,121
 693 770 693 770 677.5 755.5 c 128,-1,122
 662 741 662 741 662 724 c 0,123,124
 662 706 662 706 677.5 691.5 c 128,-1,125
 693 677 693 677 712 677 c 256,114,115
900 605 m 256,126,127
 919 605 919 605 934.5 620 c 128,-1,128
 950 635 950 635 950 652 c 0,129,130
 950 670 950 670 934.5 684.5 c 128,-1,131
 919 699 919 699 900 699 c 256,132,133
 881 699 881 699 865.5 684.5 c 128,-1,134
 850 670 850 670 850 652 c 0,135,136
 850 635 850 635 865.5 620 c 128,-1,137
 881 605 881 605 900 605 c 256,126,127
500 715 m 256,138,139
 518 715 518 715 534 731 c 128,-1,140
 550 747 550 747 550 763 c 0,141,142
 550 780 550 780 534.5 795 c 128,-1,143
 519 810 519 810 500 810 c 256,144,145
 481 810 481 810 465.5 795 c 128,-1,146
 450 780 450 780 450 763 c 0,147,148
 450 747 450 747 466 731 c 128,-1,149
 482 715 482 715 500 715 c 256,138,139
EndSplineSet
EndChar
StartChar: E
Encoding: 69 69 38
Width: 856
Flags: W
Fore
527 715 m 1,0,-1
 478 616 l 1,1,-1
 668 691 l 1,2,-1
 606 877 l 1,3,-1
 561 769 l 1,4,5
 497 793 497 793 423 793 c 0,6,7
 341 793 341 793 267.5 762 c 128,-1,8
 194 731 194 731 138.5 675.5 c 128,-1,9
 83 620 83 620 52 546 c 128,-1,10
 21 472 21 472 21 390 c 256,11,12
 21 308 21 308 52 234.5 c 128,-1,13
 83 161 83 161 138.5 105 c 128,-1,14
 194 49 194 49 267.5 18 c 128,-1,15
 341 -13 341 -13 423 -13 c 256,16,17
 505 -13 505 -13 578.5 18 c 128,-1,18
 652 49 652 49 707.5 104.5 c 128,-1,19
 763 160 763 160 794 234 c 128,-1,20
 825 308 825 308 825 390 c 0,21,22
 825 453 825 453 807 511 c 128,-1,23
 789 569 789 569 755 618 c 1,24,-1
 699 589 l 1,25,26
 730 546 730 546 746.5 495.5 c 128,-1,27
 763 445 763 445 763 390 c 0,28,29
 763 321 763 321 737 258.5 c 128,-1,30
 711 196 711 196 664 149 c 128,-1,31
 617 102 617 102 554.5 75.5 c 128,-1,32
 492 49 492 49 423 49 c 256,33,34
 354 49 354 49 292 75.5 c 128,-1,35
 230 102 230 102 182.5 149 c 128,-1,36
 135 196 135 196 109 258.5 c 128,-1,37
 83 321 83 321 83 390 c 256,38,39
 83 459 83 459 109.5 521.5 c 128,-1,40
 136 584 136 584 182.5 631 c 128,-1,41
 229 678 229 678 291.5 704.5 c 128,-1,42
 354 731 354 731 423 731 c 0,43,44
 476 731 476 731 527 715 c 1,0,-1
EndSplineSet
EndChar
StartChar: F
Encoding: 70 70 39
Width: 768
Flags: W
Fore
96 330 m 256,0,1
 96 389 96 389 118.5 442.5 c 128,-1,2
 141 496 141 496 181.5 536.5 c 128,-1,3
 222 577 222 577 275.5 599.5 c 128,-1,4
 329 622 329 622 388 622 c 256,5,6
 447 622 447 622 500.5 599.5 c 128,-1,7
 554 577 554 577 594.5 536.5 c 128,-1,8
 635 496 635 496 657.5 442.5 c 128,-1,9
 680 389 680 389 680 330 c 256,10,11
 680 271 680 271 657.5 217.5 c 128,-1,12
 635 164 635 164 594.5 123.5 c 128,-1,13
 554 83 554 83 500.5 60.5 c 128,-1,14
 447 38 447 38 388 38 c 256,15,16
 329 38 329 38 275.5 60.5 c 128,-1,17
 222 83 222 83 181.5 123.5 c 128,-1,18
 141 164 141 164 118.5 217.5 c 128,-1,19
 96 271 96 271 96 330 c 256,0,1
43 330 m 256,20,21
 43 260 43 260 69.5 197 c 128,-1,22
 96 134 96 134 144 86 c 128,-1,23
 192 38 192 38 255 11.5 c 128,-1,24
 318 -15 318 -15 388 -15 c 256,25,26
 458 -15 458 -15 521 11.5 c 128,-1,27
 584 38 584 38 632 86 c 128,-1,28
 680 134 680 134 706.5 197 c 128,-1,29
 733 260 733 260 733 330 c 256,30,31
 733 400 733 400 706.5 463 c 128,-1,32
 680 526 680 526 632 574 c 128,-1,33
 584 622 584 622 521 648.5 c 128,-1,34
 458 675 458 675 388 675 c 256,35,36
 318 675 318 675 255 648.5 c 128,-1,37
 192 622 192 622 144 574 c 128,-1,38
 96 526 96 526 69.5 463 c 128,-1,39
 43 400 43 400 43 330 c 256,20,21
EndSplineSet
EndChar
StartChar: G
Encoding: 71 71 40
Width: 987
Flags: W
Fore
967 271 m 1,0,-1
 172 271 l 1,1,2
 187 285 187 285 208 309 c 128,-1,3
 229 333 229 333 256 365 c 128,-1,4
 283 397 283 397 305 424 c 128,-1,5
 327 451 327 451 343 471 c 1,6,-1
 308 506 l 1,7,8
 247 434 247 434 191.5 376 c 128,-1,9
 136 318 136 318 57 243 c 1,10,11
 136 168 136 168 191.5 110 c 128,-1,12
 247 52 247 52 308 -20 c 1,13,-1
 343 15 l 1,14,15
 323 40 323 40 300.5 67.5 c 128,-1,16
 278 95 278 95 253.5 124 c 128,-1,17
 229 153 229 153 207 177.5 c 128,-1,18
 185 202 185 202 172 215 c 1,19,-1
 967 215 l 1,20,-1
 967 271 l 1,0,-1
57 561 m 1,21,-1
 852 561 l 1,22,23
 838 547 838 547 818 524.5 c 128,-1,24
 798 502 798 502 772 471.5 c 128,-1,25
 746 441 746 441 723.5 413.5 c 128,-1,26
 701 386 701 386 681 361 c 1,27,-1
 716 326 l 1,28,29
 777 398 777 398 832.5 456 c 128,-1,30
 888 514 888 514 967 589 c 1,31,32
 888 664 888 664 832.5 722 c 128,-1,33
 777 780 777 780 716 852 c 1,34,-1
 681 817 l 1,35,36
 697 797 697 797 721.5 767 c 128,-1,37
 746 737 746 737 770.5 708 c 128,-1,38
 795 679 795 679 816.5 654.5 c 128,-1,39
 838 630 838 630 852 617 c 1,40,-1
 57 617 l 1,41,-1
 57 561 l 1,21,-1
EndSplineSet
EndChar
StartChar: H
Encoding: 72 72 41
Width: 987
Flags: W
Fore
57 248 m 1,0,-1
 852 248 l 1,1,2
 838 234 838 234 818 211.5 c 128,-1,3
 798 189 798 189 772 158.5 c 128,-1,4
 746 128 746 128 723.5 100.5 c 128,-1,5
 701 73 701 73 681 48 c 1,6,-1
 716 13 l 1,7,8
 777 85 777 85 832.5 143 c 128,-1,9
 888 201 888 201 967 276 c 1,10,11
 888 351 888 351 832.5 409 c 128,-1,12
 777 467 777 467 716 539 c 1,13,-1
 681 504 l 1,14,15
 697 484 697 484 721.5 454 c 128,-1,16
 746 424 746 424 770.5 395 c 128,-1,17
 795 366 795 366 816.5 341.5 c 128,-1,18
 838 317 838 317 852 304 c 1,19,-1
 57 304 l 1,20,-1
 57 248 l 1,0,-1
EndSplineSet
EndChar
StartChar: I
Encoding: 73 73 42
Width: 603
Flags: W
Fore
336 0 m 1,0,-1
 336 795 l 1,1,2
 350 781 350 781 374 759.5 c 128,-1,3
 398 738 398 738 430 711 c 128,-1,4
 462 684 462 684 489 662 c 128,-1,5
 516 640 516 640 536 624 c 1,6,-1
 571 659 l 1,7,8
 499 720 499 720 441 775.5 c 128,-1,9
 383 831 383 831 308 910 c 1,10,11
 233 831 233 831 175 775.5 c 128,-1,12
 117 720 117 720 45 659 c 1,13,-1
 80 624 l 1,14,15
 105 644 105 644 132.5 666.5 c 128,-1,16
 160 689 160 689 189 713.5 c 128,-1,17
 218 738 218 738 242.5 760 c 128,-1,18
 267 782 267 782 280 795 c 1,19,-1
 280 0 l 1,20,-1
 336 0 l 1,0,-1
EndSplineSet
EndChar
StartChar: J
Encoding: 74 74 43
Width: 745
Flags: W
Fore
27 330 m 256,0,1
 27 260 27 260 53.5 197 c 128,-1,2
 80 134 80 134 128 86 c 128,-1,3
 176 38 176 38 239 11.5 c 128,-1,4
 302 -15 302 -15 372 -15 c 256,5,6
 442 -15 442 -15 505 11.5 c 128,-1,7
 568 38 568 38 616 86 c 128,-1,8
 664 134 664 134 690.5 197 c 128,-1,9
 717 260 717 260 717 330 c 256,10,11
 717 400 717 400 690.5 463 c 128,-1,12
 664 526 664 526 616 574 c 128,-1,13
 568 622 568 622 505 648.5 c 128,-1,14
 442 675 442 675 372 675 c 256,15,16
 302 675 302 675 239 648.5 c 128,-1,17
 176 622 176 622 128 574 c 128,-1,18
 80 526 80 526 53.5 463 c 128,-1,19
 27 400 27 400 27 330 c 256,0,1
80 330 m 256,20,21
 80 389 80 389 102.5 442.5 c 128,-1,22
 125 496 125 496 165.5 536.5 c 128,-1,23
 206 577 206 577 259.5 599.5 c 128,-1,24
 313 622 313 622 372 622 c 256,25,26
 431 622 431 622 484.5 599.5 c 128,-1,27
 538 577 538 577 578.5 536.5 c 128,-1,28
 619 496 619 496 641.5 442.5 c 128,-1,29
 664 389 664 389 664 330 c 256,30,31
 664 271 664 271 641.5 217.5 c 128,-1,32
 619 164 619 164 578.5 123.5 c 128,-1,33
 538 83 538 83 484.5 60.5 c 128,-1,34
 431 38 431 38 372 38 c 256,35,36
 313 38 313 38 259.5 60.5 c 128,-1,37
 206 83 206 83 165.5 123.5 c 128,-1,38
 125 164 125 164 102.5 217.5 c 128,-1,39
 80 271 80 271 80 330 c 256,20,21
422 330 m 0,40,41
 422 350 422 350 407 365 c 128,-1,42
 392 380 392 380 372 380 c 0,43,44
 351 380 351 380 336.5 365 c 128,-1,45
 322 350 322 350 322 330 c 0,46,47
 322 309 322 309 336.5 294.5 c 128,-1,48
 351 280 351 280 372 280 c 0,49,50
 392 280 392 280 407 294.5 c 128,-1,51
 422 309 422 309 422 330 c 0,40,41
EndSplineSet
EndChar
StartChar: K
Encoding: 75 75 44
Width: 1000
Flags: W
Fore
556 285 m 1,0,1
 627 274 627 274 744 261 c 1,2,-1
 767 297 l 2,3,4
 787 327 787 327 798.5 346 c 128,-1,5
 810 365 810 365 829 394 c 0,6,7
 845 415 845 415 850.5 425.5 c 128,-1,8
 856 436 856 436 863 457 c 0,9,10
 864 459 864 459 865 462 c 0,11,12
 867 469 867 469 867 475 c 0,13,14
 867 500 867 500 838.5 512 c 128,-1,15
 810 524 810 524 773 526 c 0,16,17
 753 526 753 526 717 504.5 c 128,-1,18
 681 483 681 483 643 452 c 1,19,20
 620 427 620 427 607 407 c 128,-1,21
 594 387 594 387 581 356 c 0,22,23
 577 347 577 347 575 341 c 128,-1,24
 573 335 573 335 571 328 c 0,25,26
 569 324 569 324 564 308 c 128,-1,27
 559 292 559 292 556 285 c 1,0,1
763 80 m 1,28,-1
 750 40 l 1,29,30
 689 50 689 50 622.5 55 c 128,-1,31
 556 60 556 60 500 61 c 0,32,33
 452 60 452 60 380 54.5 c 128,-1,34
 308 49 308 49 250 40 c 1,35,-1
 236 80 l 1,36,37
 305 93 305 93 379 99.5 c 128,-1,38
 453 106 453 106 500 106 c 0,39,40
 548 106 548 106 621 99.5 c 128,-1,41
 694 93 694 93 763 80 c 1,28,-1
784 211 m 1,42,43
 699 224 699 224 620.5 231.5 c 128,-1,44
 542 239 542 239 501 240 c 0,45,46
 462 240 462 240 385.5 232.5 c 128,-1,47
 309 225 309 225 224 212 c 1,48,-1
 206 254 l 2,49,50
 194 283 194 283 175.5 311.5 c 128,-1,51
 157 340 157 340 121 384 c 0,52,53
 100 415 100 415 94.5 430 c 128,-1,54
 89 445 89 445 88 460 c 0,55,56
 89 492 89 492 104.5 512.5 c 128,-1,57
 120 533 120 533 141 543 c 128,-1,58
 162 553 162 553 181 556.5 c 128,-1,59
 200 560 200 560 215 561 c 0,60,61
 244 560 244 560 289 538.5 c 128,-1,62
 334 517 334 517 407 460 c 1,63,64
 409 457 409 457 422 441 c 0,65,66
 442 414 442 414 454.5 394.5 c 128,-1,67
 467 375 467 375 476 352 c 1,68,69
 478 341 478 341 481 310 c 0,70,71
 483 286 483 286 483 285 c 1,72,-1
 516 285 l 1,73,74
 518 303 518 303 520 322 c 256,75,76
 522 341 522 341 524 352 c 1,77,78
 533 376 533 376 546 395.5 c 128,-1,79
 559 415 559 415 580 443 c 0,80,81
 585 450 585 450 592 460 c 1,82,83
 664 517 664 517 709.5 538.5 c 128,-1,84
 755 560 755 560 784 561 c 2,85,-1
 791 561 l 2,86,87
 822 560 822 560 848.5 551 c 128,-1,88
 875 542 875 542 899 509 c 1,89,90
 908 481 908 481 908 462 c 0,91,92
 908 444 908 444 901 426 c 128,-1,93
 894 408 894 408 879 384 c 0,94,95
 842 338 842 338 822 303.5 c 128,-1,96
 802 269 802 269 784 211 c 1,42,43
767 157 m 1,97,-1
 763 113 l 1,98,99
 692 124 692 124 616 131.5 c 128,-1,100
 540 139 540 139 500 140 c 0,101,102
 461 140 461 140 386.5 132.5 c 128,-1,103
 312 125 312 125 235 113 c 1,104,-1
 233 157 l 1,105,106
 310 169 310 169 385.5 176.5 c 128,-1,107
 461 184 461 184 500 184 c 256,108,109
 539 184 539 184 614.5 176.5 c 128,-1,110
 690 169 690 169 767 157 c 1,97,-1
444 285 m 1,111,112
 439 299 439 299 436 307.5 c 128,-1,113
 433 316 433 316 429 328 c 0,114,115
 427 336 427 336 424.5 342 c 128,-1,116
 422 348 422 348 419 356 c 0,117,118
 406 387 406 387 393 407 c 128,-1,119
 380 427 380 427 357 452 c 1,120,121
 319 483 319 483 283 504.5 c 128,-1,122
 247 526 247 526 227 526 c 0,123,124
 197 526 197 526 165 512 c 128,-1,125
 133 498 133 498 133 473 c 0,126,127
 133 468 133 468 135 462 c 0,128,129
 143 440 143 440 149.5 427 c 128,-1,130
 156 414 156 414 171 394 c 0,131,132
 194 358 194 358 202.5 344.5 c 128,-1,133
 211 331 211 331 233 297 c 2,134,-1
 256 261 l 1,135,136
 373 274 373 274 444 285 c 1,111,112
506 629 m 1,137,138
 504 630 l 2,139,140
 502 631 502 631 500 631 c 0,141,142
 499 631 499 631 497 630 c 256,143,144
 495 629 495 629 494 629 c 0,145,146
 477 629 477 629 477 575 c 0,147,148
 477 545 477 545 483 507 c 128,-1,149
 489 469 489 469 500 433 c 1,150,151
 511 469 511 469 516.5 505.5 c 128,-1,152
 522 542 522 542 522 573 c 0,153,154
 522 629 522 629 506 629 c 1,137,138
512 650 m 1,155,156
 535 643 535 643 542 622.5 c 128,-1,157
 549 602 549 602 549 569 c 0,158,159
 549 548 549 548 546 522.5 c 128,-1,160
 543 497 543 497 537 459 c 0,161,162
 534 445 534 445 521 412 c 0,163,164
 506 374 506 374 500 352 c 1,165,166
 494 376 494 376 478 415 c 0,167,168
 465 447 465 447 462 459 c 0,169,170
 461 465 461 465 460 476 c 0,171,172
 451 539 451 539 451 569 c 0,173,174
 451 570 451 570 451 574 c 0,175,176
 451 582 451 582 451 583 c 0,177,178
 451 606 451 606 458.5 625 c 128,-1,179
 466 644 466 644 488 650 c 1,180,181
 490 650 490 650 493 651 c 0,182,183
 497 652 497 652 500 652 c 0,184,185
 502 652 502 652 506 651 c 256,186,187
 510 650 510 650 512 650 c 1,155,156
500 -2 m 0,188,189
 531 -1 531 -1 571.5 3.5 c 128,-1,190
 612 8 612 8 651.5 15 c 128,-1,191
 691 22 691 22 727 29.5 c 128,-1,192
 763 37 763 37 783 43 c 1,193,194
 785 64 785 64 785.5 78.5 c 128,-1,195
 786 93 786 93 786 111 c 0,196,197
 786 136 786 136 794.5 167.5 c 128,-1,198
 803 199 803 199 818 238 c 0,199,200
 831 273 831 273 848 298.5 c 128,-1,201
 865 324 865 324 901 366 c 1,202,203
 919 396 919 396 927 417 c 128,-1,204
 935 438 935 438 935 460 c 0,205,206
 935 484 935 484 923 517 c 1,207,208
 896 556 896 556 864.5 570 c 128,-1,209
 833 584 833 584 784 585 c 0,210,211
 737 584 737 584 679 552 c 128,-1,212
 621 520 621 520 562 459 c 1,213,214
 567 493 567 493 570 520 c 128,-1,215
 573 547 573 547 573 569 c 0,216,217
 573 590 573 590 569 609.5 c 128,-1,218
 565 629 565 629 556 644 c 0,219,220
 547 657 547 657 537.5 664 c 128,-1,221
 528 671 528 671 512 672 c 1,222,-1
 512 719 l 1,223,-1
 565 719 l 1,224,-1
 565 743 l 1,225,-1
 512 743 l 1,226,-1
 512 800 l 1,227,-1
 488 800 l 1,228,-1
 488 743 l 1,229,-1
 436 743 l 1,230,-1
 436 719 l 1,231,-1
 488 719 l 1,232,-1
 488 672 l 1,233,234
 472 671 472 671 462.5 664 c 128,-1,235
 453 657 453 657 444 644 c 0,236,237
 435 630 435 630 431 610.5 c 128,-1,238
 427 591 427 591 427 569 c 0,239,240
 427 520 427 520 438 459 c 1,241,242
 379 520 379 520 321 552 c 128,-1,243
 263 584 263 584 215 585 c 0,244,245
 190 585 190 585 164.5 578.5 c 128,-1,246
 139 572 139 572 116.5 558.5 c 128,-1,247
 94 545 94 545 79 520 c 128,-1,248
 64 495 64 495 63 460 c 0,249,250
 63 440 63 440 69.5 421.5 c 128,-1,251
 76 403 76 403 99 366 c 1,252,253
 136 324 136 324 152.5 298.5 c 128,-1,254
 169 273 169 273 181 238 c 0,255,256
 196 200 196 200 204.5 168 c 128,-1,257
 213 136 213 136 213 111 c 0,258,259
 213 93 213 93 213.5 79 c 128,-1,260
 214 65 214 65 217 43 c 1,261,262
 239 37 239 37 276 29.5 c 128,-1,263
 313 22 313 22 354 14.5 c 128,-1,264
 395 7 395 7 434 2.5 c 128,-1,265
 473 -2 473 -2 500 -2 c 0,188,189
EndSplineSet
EndChar
StartChar: L
Encoding: 76 76 45
Width: 1000
Flags: W
Fore
500 130 m 0,0,1
 518 130 518 130 527 131 c 0,2,3
 562 134 562 134 598 145.5 c 128,-1,4
 634 157 634 157 680 180 c 1,5,-1
 650 300 l 1,6,7
 696 327 696 327 716 361 c 128,-1,8
 736 395 736 395 736 431 c 0,9,10
 736 451 736 451 730 470 c 1,11,12
 714 496 714 496 690 520 c 128,-1,13
 666 544 666 544 630 574 c 0,14,15
 608 592 608 592 600 600 c 2,16,-1
 500 700 l 1,17,-1
 400 600 l 2,18,19
 392 592 392 592 370 574 c 0,20,21
 334 544 334 544 310 520 c 128,-1,22
 286 496 286 496 270 470 c 1,23,24
 265 451 265 451 265 431 c 0,25,26
 265 396 265 396 284.5 361.5 c 128,-1,27
 304 327 304 327 350 300 c 1,28,-1
 320 180 l 1,29,30
 367 157 367 157 403.5 145.5 c 128,-1,31
 440 134 440 134 474 131 c 0,32,33
 483 130 483 130 500 130 c 0,0,1
500 700 m 256,34,35
 519 700 519 700 534.5 715.5 c 128,-1,36
 550 731 550 731 550 750 c 256,37,38
 550 769 550 769 534.5 784.5 c 128,-1,39
 519 800 519 800 500 800 c 256,40,41
 481 800 481 800 465.5 784.5 c 128,-1,42
 450 769 450 769 450 750 c 256,43,44
 450 731 450 731 465.5 715.5 c 128,-1,45
 481 700 481 700 500 700 c 256,34,35
575 515 m 1,46,-1
 575 465 l 1,47,-1
 525 465 l 1,48,-1
 525 415 l 1,49,-1
 475 415 l 1,50,-1
 475 465 l 1,51,-1
 425 465 l 1,52,-1
 425 515 l 1,53,-1
 475 515 l 1,54,-1
 475 565 l 1,55,-1
 525 565 l 1,56,-1
 525 515 l 1,57,-1
 575 515 l 1,46,-1
500 352 m 256,58,59
 527 352 527 352 568 346.5 c 128,-1,60
 609 341 609 341 636 329 c 1,61,-1
 616 291 l 1,62,63
 589 299 589 299 556 303 c 128,-1,64
 523 307 523 307 500 307 c 256,65,66
 477 307 477 307 444 303 c 128,-1,67
 411 299 411 299 384 291 c 1,68,-1
 364 329 l 1,69,70
 391 341 391 341 432 346.5 c 128,-1,71
 473 352 473 352 500 352 c 256,58,59
344 218 m 1,72,73
 404 252 404 252 500 252 c 256,74,75
 596 252 596 252 656 218 c 1,76,-1
 637 187 l 1,77,78
 588 211 588 211 500 211 c 256,79,80
 412 211 412 211 363 187 c 1,81,-1
 344 218 l 1,72,73
527 131 m 1,82,-1
 474 131 l 1,83,84
 467 119 467 119 459 112.5 c 128,-1,85
 451 106 451 106 440 100 c 1,86,87
 425 97 425 97 403 94.5 c 128,-1,88
 381 92 381 92 332 88 c 0,89,90
 273 83 273 83 250 80 c 0,91,92
 201 76 201 76 159.5 56 c 128,-1,93
 118 36 118 36 90 10 c 1,94,-1
 150 -50 l 1,95,96
 199 -7 199 -7 250 0 c 0,97,98
 292 7 292 7 335 11 c 128,-1,99
 378 15 378 15 440 20 c 1,100,101
 458 25 458 25 470 31 c 128,-1,102
 482 37 482 37 500 50 c 1,103,104
 518 37 518 37 530 31 c 128,-1,105
 542 25 542 25 560 20 c 1,106,107
 622 15 622 15 665 11 c 128,-1,108
 708 7 708 7 750 0 c 0,109,110
 801 -7 801 -7 850 -50 c 1,111,-1
 910 10 l 1,112,113
 882 36 882 36 840.5 56 c 128,-1,114
 799 76 799 76 750 80 c 0,115,116
 727 83 727 83 668 88 c 0,117,118
 629 91 629 91 601.5 94 c 128,-1,119
 574 97 574 97 560 100 c 1,120,121
 540 109 540 109 527 131 c 1,82,-1
EndSplineSet
EndChar
StartChar: P
Encoding: 80 80 49
Width: 400
Flags: W
Fore
332 166 m 0,0,1
 332 111 332 111 293 72.5 c 128,-1,2
 254 34 254 34 200 34 c 0,3,4
 145 34 145 34 106.5 72.5 c 128,-1,5
 68 111 68 111 68 166 c 0,6,7
 68 220 68 220 106.5 258.5 c 128,-1,8
 145 297 145 297 199 297 c 0,9,10
 254 297 254 297 293 258 c 128,-1,11
 332 219 332 219 332 166 c 0,0,1
380 166 m 0,12,13
 380 202 380 202 366 234.5 c 128,-1,14
 352 267 352 267 327 292 c 128,-1,15
 302 317 302 317 269 331 c 128,-1,16
 236 345 236 345 200 345 c 256,17,18
 164 345 164 345 131 331.5 c 128,-1,19
 98 318 98 318 73 293 c 128,-1,20
 48 268 48 268 34 235 c 128,-1,21
 20 202 20 202 20 166 c 0,22,23
 20 129 20 129 34 96.5 c 128,-1,24
 48 64 48 64 73 39 c 128,-1,25
 98 14 98 14 130.5 0 c 128,-1,26
 163 -14 163 -14 200 -14 c 256,27,28
 237 -14 237 -14 270 0 c 128,-1,29
 303 14 303 14 327.5 39 c 128,-1,30
 352 64 352 64 366 96.5 c 128,-1,31
 380 129 380 129 380 166 c 0,12,13
EndSplineSet
EndChar
StartChar: Q
Encoding: 81 81 50
Width: 400
Flags: W
Fore
332 561 m 256,0,1
 332 507 332 507 293 468.5 c 128,-1,2
 254 430 254 430 200 430 c 0,3,4
 145 430 145 430 106.5 468 c 128,-1,5
 68 506 68 506 68 561 c 256,6,7
 68 616 68 616 106.5 654.5 c 128,-1,8
 145 693 145 693 199 693 c 0,9,10
 254 693 254 693 293 654 c 128,-1,11
 332 615 332 615 332 561 c 256,0,1
380 561 m 0,12,13
 380 597 380 597 366 630 c 128,-1,14
 352 663 352 663 327 688 c 128,-1,15
 302 713 302 713 269.5 727 c 128,-1,16
 237 741 237 741 200 741 c 0,17,18
 164 741 164 741 131 727 c 128,-1,19
 98 713 98 713 73 688 c 128,-1,20
 48 663 48 663 34 630.5 c 128,-1,21
 20 598 20 598 20 561 c 256,22,23
 20 524 20 524 34 491.5 c 128,-1,24
 48 459 48 459 73 434.5 c 128,-1,25
 98 410 98 410 131 396 c 128,-1,26
 164 382 164 382 200 382 c 256,27,28
 236 382 236 382 269 396 c 128,-1,29
 302 410 302 410 327 434.5 c 128,-1,30
 352 459 352 459 366 491.5 c 128,-1,31
 380 524 380 524 380 561 c 0,12,13
380 166 m 0,32,33
 380 202 380 202 366 234.5 c 128,-1,34
 352 267 352 267 327 292 c 128,-1,35
 302 317 302 317 269 331 c 128,-1,36
 236 345 236 345 200 345 c 256,37,38
 164 345 164 345 131 331.5 c 128,-1,39
 98 318 98 318 73 293 c 128,-1,40
 48 268 48 268 34 235 c 128,-1,41
 20 202 20 202 20 166 c 0,42,43
 20 129 20 129 34 96.5 c 128,-1,44
 48 64 48 64 73 39 c 128,-1,45
 98 14 98 14 130.5 0 c 128,-1,46
 163 -14 163 -14 200 -14 c 256,47,48
 237 -14 237 -14 270 0 c 128,-1,49
 303 14 303 14 327.5 39 c 128,-1,50
 352 64 352 64 366 96.5 c 128,-1,51
 380 129 380 129 380 166 c 0,32,33
332 166 m 0,52,53
 332 111 332 111 293 72.5 c 128,-1,54
 254 34 254 34 200 34 c 0,55,56
 145 34 145 34 106.5 72.5 c 128,-1,57
 68 111 68 111 68 166 c 0,58,59
 68 220 68 220 106.5 258.5 c 128,-1,60
 145 297 145 297 199 297 c 0,61,62
 254 297 254 297 293 258 c 128,-1,63
 332 219 332 219 332 166 c 0,52,53
EndSplineSet
EndChar
StartChar: R
Encoding: 82 82 51
Width: 400
Flags: W
Fore
224 347 m 1,0,-1
 224 426 l 1,1,-1
 283 426 l 1,2,-1
 200 506 l 1,3,-1
 116 426 l 1,4,-1
 175 426 l 1,5,-1
 175 347 l 1,6,7
 109 338 109 338 64.5 287 c 128,-1,8
 20 236 20 236 20 168 c 0,9,10
 20 131 20 131 34 98 c 128,-1,11
 48 65 48 65 72.5 40 c 128,-1,12
 97 15 97 15 130 1 c 128,-1,13
 163 -13 163 -13 200 -13 c 256,14,15
 237 -13 237 -13 269.5 1 c 128,-1,16
 302 15 302 15 327 40 c 128,-1,17
 352 65 352 65 366 98 c 128,-1,18
 380 131 380 131 380 168 c 0,19,20
 380 201 380 201 368.5 231.5 c 128,-1,21
 357 262 357 262 335 287 c 0,22,23
 290 338 290 338 224 347 c 1,0,-1
332 168 m 0,24,25
 332 113 332 113 293 74 c 128,-1,26
 254 35 254 35 200 35 c 0,27,28
 145 35 145 35 106.5 74 c 128,-1,29
 68 113 68 113 68 168 c 256,30,31
 68 223 68 223 106.5 261.5 c 128,-1,32
 145 300 145 300 199 300 c 0,33,34
 254 300 254 300 293 261 c 128,-1,35
 332 222 332 222 332 168 c 0,24,25
EndSplineSet
EndChar
StartChar: S
Encoding: 83 83 52
Width: 1000
Flags: W
Fore
500 642 m 1,0,-1
 500 696 l 1,1,2
 521 708 521 708 552 708 c 0,3,4
 587 708 587 708 624 694.5 c 128,-1,5
 661 681 661 681 687 658 c 0,6,7
 709 640 709 640 733 610 c 128,-1,8
 757 580 757 580 780 543 c 128,-1,9
 803 506 803 506 820.5 467 c 128,-1,10
 838 428 838 428 846 393 c 0,11,12
 874 291 874 291 887.5 196 c 128,-1,13
 901 101 901 101 905 -5 c 1,14,-1
 847 -6 l 1,15,16
 842 96 842 96 829 191.5 c 128,-1,17
 816 287 816 287 794 370 c 0,18,19
 786 399 786 399 769.5 435.5 c 128,-1,20
 753 472 753 472 732.5 509 c 128,-1,21
 712 546 712 546 692 575.5 c 128,-1,22
 672 605 672 605 658 617 c 0,23,24
 641 634 641 634 609 646 c 128,-1,25
 577 658 577 658 547 658 c 0,26,27
 515 658 515 658 500 642 c 1,0,-1
105 257 m 1,28,29
 102 270 102 270 102 277 c 256,30,31
 102 284 102 284 105 290 c 2,32,33
 111 308 111 308 124.5 320 c 128,-1,34
 138 332 138 332 153 335 c 1,35,36
 160 332 160 332 165.5 325 c 128,-1,37
 171 318 171 318 171 312 c 0,38,39
 171 311 171 311 171 309 c 1,40,41
 170 308 170 308 170 307 c 0,42,43
 168 297 168 297 163 291.5 c 128,-1,44
 158 286 158 286 146 279 c 2,45,46
 137 271 137 271 123.5 264 c 128,-1,47
 110 257 110 257 105 257 c 1,28,29
216 523 m 1,48,-1
 222 532 l 2,49,50
 232 548 232 548 238.5 558 c 128,-1,51
 245 568 245 568 251 576 c 0,52,53
 262 589 262 589 272 595.5 c 128,-1,54
 282 602 282 602 303 609 c 1,55,56
 305 609 305 609 308 609 c 1,57,58
 310 610 310 610 312 610 c 0,59,60
 321 610 321 610 328 603 c 1,61,62
 328 586 328 586 317 575 c 0,63,64
 301 555 301 555 276 541 c 128,-1,65
 251 527 251 527 216 523 c 1,48,-1
500 720 m 1,66,-1
 451 829 l 1,67,-1
 375 750 l 1,68,-1
 250 825 l 1,69,-1
 260 700 l 1,70,71
 244 688 244 688 221 651 c 1,72,-1
 220 650 l 1,73,-1
 211 639 l 2,74,75
 205 632 205 632 196 620.5 c 128,-1,76
 187 609 187 609 180 600 c 1,77,78
 176 591 176 591 176 581 c 0,79,80
 176 570 176 570 180 560 c 1,81,82
 179 554 179 554 168.5 531.5 c 128,-1,83
 158 509 158 509 140 472 c 0,84,85
 111 414 111 414 95 380 c 128,-1,86
 79 346 79 346 70 320 c 1,87,88
 67 303 67 303 67 289 c 0,89,90
 67 277 67 277 70 260 c 0,91,92
 75 234 75 234 89 220 c 128,-1,93
 103 206 103 206 140 200 c 0,94,95
 151 198 151 198 157 198 c 256,96,97
 163 198 163 198 170 200 c 1,98,99
 170 187 170 187 175 175 c 1,100,101
 185 162 185 162 199 162 c 0,102,103
 215 162 215 162 225 180 c 1,104,105
 249 205 249 205 261 223 c 0,106,107
 268 234 268 234 274 246.5 c 128,-1,108
 280 259 280 259 290 280 c 1,109,110
 312 309 312 309 343 328.5 c 128,-1,111
 374 348 374 348 410 360 c 0,112,113
 424 365 424 365 436.5 373 c 128,-1,114
 449 381 449 381 467 395 c 0,115,116
 484 407 484 407 490 410 c 1,117,118
 490 361 490 361 476 298.5 c 128,-1,119
 462 236 462 236 435 195 c 0,120,121
 429 183 429 183 396 153 c 0,122,123
 369 129 369 129 350.5 109 c 128,-1,124
 332 89 332 89 320 65 c 0,125,126
 309 43 309 43 309 6 c 0,127,128
 309 1 309 1 309 -9 c 0,129,130
 310 -20 310 -20 310 -25 c 1,131,-1
 930 -25 l 1,132,133
 927 91 927 91 913 192.5 c 128,-1,134
 899 294 899 294 870 400 c 0,135,136
 861 437 861 437 842.5 478 c 128,-1,137
 824 519 824 519 799.5 558 c 128,-1,138
 775 597 775 597 749 629 c 128,-1,139
 723 661 723 661 700 680 c 0,140,141
 672 704 672 704 632.5 718.5 c 128,-1,142
 593 733 593 733 556 733 c 0,143,144
 523 733 523 733 500 720 c 1,66,-1
EndSplineSet
EndChar
StartChar: T
Encoding: 84 84 53
Width: 1000
Flags: W
Fore
745 138 m 1,0,-1
 500 138 l 1,1,-1
 255 138 l 1,2,-1
 297 183 l 1,3,-1
 500 183 l 1,4,-1
 703 183 l 1,5,-1
 745 138 l 1,0,-1
255 97 m 1,6,-1
 500 97 l 1,7,-1
 745 97 l 1,8,-1
 745 52 l 1,9,-1
 500 52 l 1,10,-1
 255 52 l 1,11,-1
 255 97 l 1,6,-1
660 273 m 1,12,-1
 660 228 l 1,13,-1
 500 228 l 1,14,-1
 340 228 l 1,15,-1
 340 273 l 1,16,-1
 660 273 l 1,12,-1
340 570 m 1,17,-1
 500 570 l 1,18,-1
 660 570 l 1,19,-1
 660 525 l 1,20,-1
 340 525 l 1,21,-1
 340 570 l 1,17,-1
700 605 m 1,22,-1
 500 605 l 1,23,-1
 300 605 l 1,24,-1
 240 650 l 1,25,-1
 760 650 l 1,26,-1
 700 605 l 1,22,-1
825 0 m 1,27,-1
 825 75 l 1,28,-1
 775 75 l 1,29,-1
 775 160 l 1,30,-1
 690 250 l 1,31,-1
 690 550 l 1,32,-1
 790 625 l 1,33,-1
 790 760 l 1,34,-1
 675 760 l 1,35,-1
 675 700 l 1,36,-1
 570 700 l 1,37,-1
 570 760 l 1,38,-1
 430 760 l 1,39,-1
 430 700 l 1,40,-1
 325 700 l 1,41,-1
 325 760 l 1,42,-1
 210 760 l 1,43,-1
 210 625 l 1,44,-1
 310 550 l 1,45,-1
 310 250 l 1,46,-1
 225 160 l 1,47,-1
 225 75 l 1,48,-1
 175 75 l 1,49,-1
 175 0 l 1,50,-1
 500 0 l 1,51,-1
 825 0 l 1,27,-1
EndSplineSet
EndChar
StartChar: U
Encoding: 85 85 54
Width: 612
Flags: W
Fore
326 688 m 1,0,-1
 6 0 l 1,1,-1
 608 0 l 1,2,-1
 326 688 l 1,0,-1
290 517 m 1,3,-1
 484 49 l 1,4,-1
 72 49 l 1,5,-1
 290 517 l 1,3,-1
EndSplineSet
EndChar
StartChar: V
Encoding: 86 86 55
Width: 612
Flags: W
Fore
600 600 m 1,0,-1
 0 600 l 1,1,-1
 0 0 l 1,2,-1
 600 0 l 1,3,-1
 600 600 l 1,0,-1
550 550 m 1,4,-1
 550 50 l 1,5,-1
 50 50 l 1,6,-1
 50 550 l 1,7,-1
 550 550 l 1,4,-1
EndSplineSet
EndChar
StartChar: W
Encoding: 87 87 56
Width: 612
Flags: W
Fore
305 350 m 256,0,1
 250 350 250 350 196 325 c 128,-1,2
 142 300 142 300 98.5 256.5 c 128,-1,3
 55 213 55 213 30 159 c 128,-1,4
 5 105 5 105 5 50 c 2,5,-1
 5 0 l 1,6,-1
 605 0 l 1,7,-1
 605 50 l 2,8,9
 605 105 605 105 580 159 c 128,-1,10
 555 213 555 213 511.5 256.5 c 128,-1,11
 468 300 468 300 414 325 c 128,-1,12
 360 350 360 350 305 350 c 256,0,1
305 300 m 256,13,14
 351 300 351 300 396 279 c 128,-1,15
 441 258 441 258 477 222 c 128,-1,16
 513 186 513 186 534 141 c 128,-1,17
 555 96 555 96 555 50 c 1,18,-1
 55 50 l 1,19,20
 55 96 55 96 76 141 c 128,-1,21
 97 186 97 186 133 222 c 128,-1,22
 169 258 169 258 214 279 c 128,-1,23
 259 300 259 300 305 300 c 256,13,14
EndSplineSet
EndChar
StartChar: X
Encoding: 88 88 57
Width: 549
Flags: W
Fore
533 487 m 1,0,-1
 496 524 l 1,1,-1
 275 302 l 1,2,-1
 54 524 l 1,3,-1
 17 487 l 1,4,-1
 237 266 l 1,5,-1
 17 45 l 1,6,-1
 54 8 l 1,7,-1
 275 230 l 1,8,-1
 496 8 l 1,9,-1
 533 45 l 1,10,-1
 313 266 l 1,11,-1
 533 487 l 1,0,-1
EndSplineSet
EndChar
StartChar: Y
Encoding: 89 89 58
Width: 658
Flags: W
Fore
652 55 m 1,0,-1
 361 55 l 1,1,-1
 361 674 l 1,2,-1
 306 674 l 1,3,-1
 306 55 l 1,4,-1
 15 55 l 1,5,-1
 15 0 l 1,6,-1
 652 0 l 1,7,-1
 652 55 l 1,0,-1
EndSplineSet
EndChar
StartChar: Z
Encoding: 90 90 59
Width: 612
Flags: W
Fore
325 325 m 1,0,-1
 325 550 l 1,1,-1
 550 550 l 1,2,-1
 550 325 l 1,3,-1
 325 325 l 1,0,-1
275 325 m 1,4,-1
 50 325 l 1,5,-1
 50 550 l 1,6,-1
 275 550 l 1,7,-1
 275 325 l 1,4,-1
275 275 m 1,8,-1
 275 50 l 1,9,-1
 50 50 l 1,10,-1
 50 275 l 1,11,-1
 275 275 l 1,8,-1
325 275 m 1,12,-1
 550 275 l 1,13,-1
 550 50 l 1,14,-1
 325 50 l 1,15,-1
 325 275 l 1,12,-1
600 600 m 1,16,-1
 0 600 l 1,17,-1
 0 0 l 1,18,-1
 600 0 l 1,19,-1
 600 600 l 1,16,-1
EndSplineSet
EndChar
StartChar: b
Encoding: 98 98 67
Width: 649
Flags: W
Fore
604 24 m 1,0,-1
 327 24 l 1,1,-1
 50 24 l 1,2,3
 50 30 50 30 49 37 c 1,4,5
 49 48 49 48 49 51 c 0,6,7
 49 90 49 90 60 128.5 c 128,-1,8
 71 167 71 167 87.5 199 c 128,-1,9
 104 231 104 231 120.5 253.5 c 128,-1,10
 137 276 137 276 149 287 c 2,11,12
 168 312 168 312 200.5 328 c 128,-1,13
 233 344 233 344 273 346 c 0,14,15
 279 347 279 347 279 357 c 0,16,17
 279 368 279 368 273 370 c 0,18,19
 215 390 215 390 194 418 c 128,-1,20
 173 446 173 446 171 500 c 0,21,22
 173 542 173 542 209.5 575.5 c 128,-1,23
 246 609 246 609 304 613 c 1,24,25
 310 618 310 618 310 629 c 0,26,27
 310 637 310 637 307 639 c 0,28,29
 284 650 284 650 271 675.5 c 128,-1,30
 258 701 258 701 258 722 c 0,31,32
 260 747 260 747 281 761.5 c 128,-1,33
 302 776 302 776 327 776 c 0,34,35
 353 776 353 776 373.5 761.5 c 128,-1,36
 394 747 394 747 396 722 c 0,37,38
 396 701 396 701 383.5 675.5 c 128,-1,39
 371 650 371 650 347 639 c 1,40,41
 345 637 345 637 345 630 c 0,42,43
 345 617 345 617 350 613 c 1,44,45
 408 609 408 609 444.5 575.5 c 128,-1,46
 481 542 481 542 483 500 c 0,47,48
 481 446 481 446 460.5 418 c 128,-1,49
 440 390 440 390 381 370 c 0,50,51
 375 368 375 368 375 357 c 0,52,53
 375 347 375 347 381 346 c 0,54,55
 421 344 421 344 453.5 328 c 128,-1,56
 486 312 486 312 505 287 c 2,57,58
 517 276 517 276 533.5 253.5 c 128,-1,59
 550 231 550 231 567 199 c 128,-1,60
 584 167 584 167 594.5 128.5 c 128,-1,61
 605 90 605 90 605 51 c 0,62,63
 605 48 605 48 605 37 c 1,64,65
 604 30 604 30 604 24 c 1,0,-1
627 0 m 1,66,67
 630 22 630 22 630 44 c 0,68,69
 630 91 630 91 619 133.5 c 128,-1,70
 608 176 608 176 591.5 209.5 c 128,-1,71
 575 243 575 243 558 265.5 c 128,-1,72
 541 288 541 288 527 300 c 0,73,74
 499 326 499 326 471 342 c 128,-1,75
 443 358 443 358 417 360 c 1,76,77
 466 376 466 376 486.5 407 c 128,-1,78
 507 438 507 438 507 500 c 0,79,80
 507 551 507 551 465.5 589 c 128,-1,81
 424 627 424 627 367 630 c 1,82,83
 395 637 395 637 407.5 663.5 c 128,-1,84
 420 690 420 690 420 722 c 0,85,86
 419 758 419 758 390.5 779 c 128,-1,87
 362 800 362 800 327 800 c 256,88,89
 292 800 292 800 263.5 779 c 128,-1,90
 235 758 235 758 234 722 c 0,91,92
 234 690 234 690 246.5 663.5 c 128,-1,93
 259 637 259 637 287 630 c 1,94,95
 230 627 230 627 188.5 589 c 128,-1,96
 147 551 147 551 147 500 c 0,97,98
 147 438 147 438 167.5 407 c 128,-1,99
 188 376 188 376 237 360 c 1,100,101
 211 358 211 358 183 342 c 128,-1,102
 155 326 155 326 127 300 c 0,103,104
 114 289 114 289 96.5 265.5 c 128,-1,105
 79 242 79 242 62.5 209 c 128,-1,106
 46 176 46 176 35.5 133.5 c 128,-1,107
 25 91 25 91 25 44 c 0,108,109
 25 22 25 22 27 0 c 1,110,-1
 327 0 l 1,111,-1
 627 0 l 1,66,67
EndSplineSet
EndChar
StartChar: d
Encoding: 100 100 69
Width: 944
Flags: W
Fore
864 593 m 1,0,-1
 852 597 l 1,1,-1
 694 325 l 1,2,-1
 674 666 l 1,3,-1
 661 670 l 1,4,-1
 544 342 l 1,5,-1
 478 705 l 1,6,-1
 468 705 l 1,7,-1
 402 342 l 1,8,-1
 285 670 l 1,9,-1
 272 667 l 1,10,-1
 252 325 l 1,11,-1
 94 597 l 1,12,-1
 82 594 l 1,13,-1
 143 292 l 1,14,-1
 218 207 l 1,15,-1
 237 118 l 1,16,-1
 198 34 l 1,17,18
 212 13 212 13 283 -3 c 0,19,20
 327 -9 327 -9 368.5 -11 c 128,-1,21
 410 -13 410 -13 473 -13 c 0,22,23
 537 -13 537 -13 578 -11 c 128,-1,24
 619 -9 619 -9 663 -3 c 0,25,26
 734 13 734 13 748 34 c 1,27,-1
 733 66 l 1,28,-1
 709 118 l 1,29,-1
 729 207 l 1,30,-1
 803 292 l 1,31,-1
 864 593 l 1,0,-1
234 310 m 1,32,33
 218 311 218 311 195 320 c 1,34,35
 190 309 190 309 181 304 c 128,-1,36
 172 299 172 299 166 299 c 1,37,-1
 127 495 l 1,38,-1
 234 310 l 1,32,33
424 331 m 1,39,-1
 473 601 l 1,40,-1
 522 331 l 1,41,42
 498 335 498 335 473 351 c 1,43,44
 448 335 448 335 424 331 c 1,39,-1
765 281 m 1,45,-1
 713 221 l 1,46,47
 665 242 665 242 597.5 256.5 c 128,-1,48
 530 271 530 271 473 271 c 256,49,50
 416 271 416 271 348 256.5 c 128,-1,51
 280 242 280 242 233 221 c 1,52,-1
 183 281 l 1,53,54
 193 284 193 284 204 296 c 1,55,56
 221 289 221 289 244 289 c 256,57,58
 267 289 267 289 289.5 296.5 c 128,-1,59
 312 304 312 304 330 320 c 1,60,61
 359 307 359 307 393 307 c 0,62,63
 438 307 438 307 473 329 c 1,64,65
 508 307 508 307 553 307 c 0,66,67
 587 307 587 307 616 320 c 1,68,69
 634 304 634 304 657 296.5 c 128,-1,70
 680 289 680 289 702 289 c 0,71,72
 725 289 725 289 742 296 c 1,73,74
 753 283 753 283 765 281 c 1,45,-1
706 31 m 1,75,76
 686 24 686 24 663 20 c 0,77,78
 619 13 619 13 578.5 11 c 128,-1,79
 538 9 538 9 473 9 c 0,80,81
 409 9 409 9 368 11 c 128,-1,82
 327 13 327 13 283 20 c 0,83,84
 259 25 259 25 241 32 c 1,85,86
 266 40 266 40 296.5 47 c 128,-1,87
 327 54 327 54 361.5 60.5 c 128,-1,88
 396 67 396 67 425 70.5 c 128,-1,89
 454 74 454 74 473 74 c 256,90,91
 492 74 492 74 522.5 70 c 128,-1,92
 553 66 553 66 586.5 60 c 128,-1,93
 620 54 620 54 651.5 46 c 128,-1,94
 683 38 683 38 706 31 c 1,75,76
385 329 m 1,95,96
 352 332 352 332 326 343 c 1,97,98
 302 322 302 322 275 315 c 1,99,-1
 290 590 l 1,100,-1
 385 329 l 1,95,96
562 329 m 1,101,-1
 656 590 l 1,102,-1
 671 315 l 1,103,104
 644 322 644 322 620 343 c 1,105,106
 594 333 594 333 562 329 c 1,101,-1
712 310 m 1,107,-1
 819 495 l 1,108,-1
 780 299 l 1,109,110
 774 299 774 299 765 304 c 128,-1,111
 756 309 756 309 751 320 c 1,112,113
 728 311 728 311 712 310 c 1,107,-1
870 595 m 0,114,115
 891 595 891 595 909 612 c 128,-1,116
 927 629 927 629 927 649 c 256,117,118
 927 669 927 669 909 686.5 c 128,-1,119
 891 704 891 704 870 704 c 0,120,121
 848 704 848 704 830 686.5 c 128,-1,122
 812 669 812 669 812 649 c 256,123,124
 812 629 812 629 830 612 c 128,-1,125
 848 595 848 595 870 595 c 0,114,115
684 666 m 256,126,127
 706 666 706 666 723.5 683 c 128,-1,128
 741 700 741 700 741 721 c 0,129,130
 741 741 741 741 723.5 758 c 128,-1,131
 706 775 706 775 684 775 c 256,132,133
 662 775 662 775 644 758 c 128,-1,134
 626 741 626 741 626 721 c 0,135,136
 626 700 626 700 644 683 c 128,-1,137
 662 666 662 666 684 666 c 256,126,127
684 689 m 256,138,139
 671 689 671 689 660.5 699 c 128,-1,140
 650 709 650 709 650 721 c 0,141,142
 650 732 650 732 660.5 742 c 128,-1,143
 671 752 671 752 684 752 c 256,144,145
 697 752 697 752 707.5 742 c 128,-1,146
 718 732 718 732 718 721 c 0,147,148
 718 709 718 709 707.5 699 c 128,-1,149
 697 689 697 689 684 689 c 256,138,139
870 617 m 256,150,151
 857 617 857 617 846.5 627 c 128,-1,152
 836 637 836 637 836 649 c 256,153,154
 836 661 836 661 846.5 671 c 128,-1,155
 857 681 857 681 870 681 c 256,156,157
 883 681 883 681 893 671 c 128,-1,158
 903 661 903 661 903 649 c 256,159,160
 903 637 903 637 893 627 c 128,-1,161
 883 617 883 617 870 617 c 256,150,151
473 706 m 256,162,163
 495 706 495 706 513 723 c 128,-1,164
 531 740 531 740 531 760 c 256,165,166
 531 780 531 780 513 797 c 128,-1,167
 495 814 495 814 473 814 c 256,168,169
 451 814 451 814 433 797 c 128,-1,170
 415 780 415 780 415 760 c 256,171,172
 415 740 415 740 433 723 c 128,-1,173
 451 706 451 706 473 706 c 256,162,163
473 728 m 256,174,175
 460 728 460 728 449.5 738 c 128,-1,176
 439 748 439 748 439 760 c 256,177,178
 439 772 439 772 449.5 782 c 128,-1,179
 460 792 460 792 473 792 c 256,180,181
 486 792 486 792 496.5 782 c 128,-1,182
 507 772 507 772 507 760 c 256,183,184
 507 748 507 748 496.5 738 c 128,-1,185
 486 728 486 728 473 728 c 256,174,175
76 595 m 0,186,187
 98 595 98 595 116 612 c 128,-1,188
 134 629 134 629 134 649 c 256,189,190
 134 669 134 669 116 686.5 c 128,-1,191
 98 704 98 704 76 704 c 0,192,193
 55 704 55 704 37 686.5 c 128,-1,194
 19 669 19 669 19 649 c 256,195,196
 19 629 19 629 37 612 c 128,-1,197
 55 595 55 595 76 595 c 0,186,187
76 617 m 0,198,199
 64 617 64 617 53.5 627 c 128,-1,200
 43 637 43 637 43 649 c 256,201,202
 43 661 43 661 53.5 671 c 128,-1,203
 64 681 64 681 76 681 c 0,204,205
 89 681 89 681 99.5 671 c 128,-1,206
 110 661 110 661 110 649 c 256,207,208
 110 637 110 637 99.5 627 c 128,-1,209
 89 617 89 617 76 617 c 0,198,199
265 690 m 256,210,211
 252 690 252 690 242 700 c 128,-1,212
 232 710 232 710 232 721 c 0,213,214
 232 733 232 733 242 743 c 128,-1,215
 252 753 252 753 265 753 c 256,216,217
 278 753 278 753 288.5 743 c 128,-1,218
 299 733 299 733 299 721 c 0,219,220
 299 710 299 710 288.5 700 c 128,-1,221
 278 690 278 690 265 690 c 256,210,211
688 112 m 1,222,-1
 716 52 l 1,223,224
 697 59 697 59 664.5 67 c 128,-1,225
 632 75 632 75 594 82 c 128,-1,226
 556 89 556 89 524.5 93 c 128,-1,227
 493 97 493 97 473 97 c 256,228,229
 453 97 453 97 422 93 c 128,-1,230
 391 89 391 89 354 82 c 128,-1,231
 317 75 317 75 284 67 c 128,-1,232
 251 59 251 59 232 52 c 1,233,-1
 258 111 l 1,234,235
 276 120 276 120 304.5 129 c 128,-1,236
 333 138 333 138 364 145 c 128,-1,237
 395 152 395 152 423.5 155.5 c 128,-1,238
 452 159 452 159 473 159 c 256,239,240
 494 159 494 159 522 155.5 c 128,-1,241
 550 152 550 152 582 145 c 128,-1,242
 614 138 614 138 642 129.5 c 128,-1,243
 670 121 670 121 688 112 c 1,222,-1
704 202 m 1,244,-1
 689 134 l 1,245,246
 670 143 670 143 643 151.5 c 128,-1,247
 616 160 616 160 583 167 c 128,-1,248
 550 174 550 174 521.5 178 c 128,-1,249
 493 182 493 182 473 182 c 0,250,251
 454 182 454 182 424 178 c 128,-1,252
 394 174 394 174 363 167.5 c 128,-1,253
 332 161 332 161 304 152 c 128,-1,254
 276 143 276 143 257 134 c 1,255,-1
 242 202 l 1,256,257
 289 222 289 222 353 235 c 128,-1,258
 417 248 417 248 473 248 c 256,259,260
 529 248 529 248 592.5 235 c 128,-1,261
 656 222 656 222 704 202 c 1,244,-1
265 667 m 256,262,263
 287 667 287 667 305 684 c 128,-1,264
 323 701 323 701 323 721 c 0,265,266
 323 742 323 742 305 759 c 128,-1,267
 287 776 287 776 265 776 c 256,268,269
 243 776 243 776 225.5 759 c 128,-1,270
 208 742 208 742 208 721 c 0,271,272
 208 701 208 701 225.5 684 c 128,-1,273
 243 667 243 667 265 667 c 256,262,263
EndSplineSet
EndChar
StartChar: e
Encoding: 101 101 70
Width: 0
Flags: W
Fore
897 595 m 0,0,1
 918 595 918 595 936 612 c 128,-1,2
 954 629 954 629 954 649 c 256,3,4
 954 669 954 669 936 686.5 c 128,-1,5
 918 704 918 704 897 704 c 0,6,7
 875 704 875 704 857 686.5 c 128,-1,8
 839 669 839 669 839 649 c 256,9,10
 839 629 839 629 857 612 c 128,-1,11
 875 595 875 595 897 595 c 0,0,1
711 666 m 256,12,13
 733 666 733 666 750.5 683 c 128,-1,14
 768 700 768 700 768 721 c 0,15,16
 768 741 768 741 750.5 758 c 128,-1,17
 733 775 733 775 711 775 c 256,18,19
 689 775 689 775 671 758 c 128,-1,20
 653 741 653 741 653 721 c 0,21,22
 653 700 653 700 671 683 c 128,-1,23
 689 666 689 666 711 666 c 256,12,13
711 689 m 256,24,25
 698 689 698 689 687.5 699 c 128,-1,26
 677 709 677 709 677 721 c 0,27,28
 677 732 677 732 687.5 742 c 128,-1,29
 698 752 698 752 711 752 c 256,30,31
 724 752 724 752 734.5 742 c 128,-1,32
 745 732 745 732 745 721 c 0,33,34
 745 709 745 709 734.5 699 c 128,-1,35
 724 689 724 689 711 689 c 256,24,25
897 617 m 256,36,37
 884 617 884 617 873.5 627 c 128,-1,38
 863 637 863 637 863 649 c 256,39,40
 863 661 863 661 873.5 671 c 128,-1,41
 884 681 884 681 897 681 c 256,42,43
 910 681 910 681 920 671 c 128,-1,44
 930 661 930 661 930 649 c 256,45,46
 930 637 930 637 920 627 c 128,-1,47
 910 617 910 617 897 617 c 256,36,37
500 706 m 256,48,49
 522 706 522 706 540 723 c 128,-1,50
 558 740 558 740 558 760 c 256,51,52
 558 780 558 780 540 797 c 128,-1,53
 522 814 522 814 500 814 c 256,54,55
 478 814 478 814 460 797 c 128,-1,56
 442 780 442 780 442 760 c 256,57,58
 442 740 442 740 460 723 c 128,-1,59
 478 706 478 706 500 706 c 256,48,49
500 728 m 256,60,61
 487 728 487 728 476.5 738 c 128,-1,62
 466 748 466 748 466 760 c 256,63,64
 466 772 466 772 476.5 782 c 128,-1,65
 487 792 487 792 500 792 c 256,66,67
 513 792 513 792 523.5 782 c 128,-1,68
 534 772 534 772 534 760 c 256,69,70
 534 748 534 748 523.5 738 c 128,-1,71
 513 728 513 728 500 728 c 256,60,61
103 595 m 0,72,73
 125 595 125 595 143 612 c 128,-1,74
 161 629 161 629 161 649 c 256,75,76
 161 669 161 669 143 686.5 c 128,-1,77
 125 704 125 704 103 704 c 0,78,79
 82 704 82 704 64 686.5 c 128,-1,80
 46 669 46 669 46 649 c 256,81,82
 46 629 46 629 64 612 c 128,-1,83
 82 595 82 595 103 595 c 0,72,73
103 617 m 0,84,85
 91 617 91 617 80.5 627 c 128,-1,86
 70 637 70 637 70 649 c 256,87,88
 70 661 70 661 80.5 671 c 128,-1,89
 91 681 91 681 103 681 c 0,90,91
 116 681 116 681 126.5 671 c 128,-1,92
 137 661 137 661 137 649 c 256,93,94
 137 637 137 637 126.5 627 c 128,-1,95
 116 617 116 617 103 617 c 0,84,85
292 690 m 256,96,97
 279 690 279 690 269 700 c 128,-1,98
 259 710 259 710 259 721 c 0,99,100
 259 733 259 733 269 743 c 128,-1,101
 279 753 279 753 292 753 c 256,102,103
 305 753 305 753 315.5 743 c 128,-1,104
 326 733 326 733 326 721 c 0,105,106
 326 710 326 710 315.5 700 c 128,-1,107
 305 690 305 690 292 690 c 256,96,97
292 667 m 256,108,109
 314 667 314 667 332 684 c 128,-1,110
 350 701 350 701 350 721 c 0,111,112
 350 742 350 742 332 759 c 128,-1,113
 314 776 314 776 292 776 c 256,114,115
 270 776 270 776 252.5 759 c 128,-1,116
 235 742 235 742 235 721 c 0,117,118
 235 701 235 701 252.5 684 c 128,-1,119
 270 667 270 667 292 667 c 256,108,109
EndSplineSet
EndChar
StartChar: f
Encoding: 102 102 71
Width: 1000
Flags: W
Fore
891 593 m 1,0,-1
 879 597 l 1,1,-1
 721 325 l 1,2,-1
 701 666 l 1,3,-1
 688 670 l 1,4,-1
 571 342 l 1,5,-1
 505 705 l 1,6,-1
 495 705 l 1,7,-1
 429 342 l 1,8,-1
 312 670 l 1,9,-1
 299 666 l 1,10,-1
 279 325 l 1,11,-1
 121 597 l 1,12,-1
 109 594 l 1,13,-1
 170 292 l 1,14,-1
 245 207 l 1,15,-1
 264 118 l 1,16,-1
 225 34 l 1,17,18
 239 13 239 13 310 -3 c 0,19,20
 354 -9 354 -9 395.5 -11 c 128,-1,21
 437 -13 437 -13 500 -13 c 0,22,23
 564 -13 564 -13 605 -11 c 128,-1,24
 646 -9 646 -9 690 -3 c 0,25,26
 761 13 761 13 775 34 c 1,27,-1
 760 66 l 1,28,-1
 736 118 l 1,29,-1
 756 207 l 1,30,-1
 830 292 l 1,31,-1
 891 593 l 1,0,-1
261 310 m 1,32,33
 245 311 245 311 222 320 c 1,34,35
 217 309 217 309 208 304 c 128,-1,36
 199 299 199 299 193 299 c 1,37,-1
 154 495 l 1,38,-1
 261 310 l 1,32,33
451 331 m 1,39,-1
 500 601 l 1,40,-1
 549 331 l 1,41,42
 525 335 525 335 500 351 c 1,43,44
 475 335 475 335 451 331 c 1,39,-1
792 281 m 1,45,-1
 740 221 l 1,46,47
 692 242 692 242 624.5 256.5 c 128,-1,48
 557 271 557 271 500 271 c 256,49,50
 443 271 443 271 375 256.5 c 128,-1,51
 307 242 307 242 260 221 c 1,52,-1
 210 281 l 1,53,54
 220 284 220 284 231 296 c 1,55,56
 248 289 248 289 271 289 c 256,57,58
 294 289 294 289 316.5 296.5 c 128,-1,59
 339 304 339 304 357 320 c 1,60,61
 386 307 386 307 420 307 c 0,62,63
 465 307 465 307 500 329 c 1,64,65
 535 307 535 307 580 307 c 0,66,67
 614 307 614 307 643 320 c 1,68,69
 661 304 661 304 684 296.5 c 128,-1,70
 707 289 707 289 729 289 c 0,71,72
 752 289 752 289 769 296 c 1,73,74
 780 283 780 283 792 281 c 1,45,-1
733 31 m 1,75,76
 713 24 713 24 690 20 c 0,77,78
 646 13 646 13 605.5 11 c 128,-1,79
 565 9 565 9 500 9 c 0,80,81
 436 9 436 9 395 11 c 128,-1,82
 354 13 354 13 310 20 c 0,83,84
 286 25 286 25 268 32 c 1,85,86
 293 40 293 40 323.5 47 c 128,-1,87
 354 54 354 54 388.5 60.5 c 128,-1,88
 423 67 423 67 452 70.5 c 128,-1,89
 481 74 481 74 500 74 c 256,90,91
 519 74 519 74 549.5 70 c 128,-1,92
 580 66 580 66 613.5 60 c 128,-1,93
 647 54 647 54 678.5 46 c 128,-1,94
 710 38 710 38 733 31 c 1,75,76
412 329 m 1,95,96
 379 332 379 332 353 343 c 1,97,98
 329 322 329 322 302 315 c 1,99,-1
 317 590 l 1,100,-1
 412 329 l 1,95,96
589 329 m 1,101,-1
 683 590 l 1,102,-1
 698 315 l 1,103,104
 671 322 671 322 647 343 c 1,105,106
 621 333 621 333 589 329 c 1,101,-1
739 310 m 1,107,-1
 846 495 l 1,108,-1
 807 299 l 1,109,110
 801 299 801 299 792 304 c 128,-1,111
 783 309 783 309 778 320 c 1,112,113
 755 311 755 311 739 310 c 1,107,-1
715 112 m 1,114,-1
 743 52 l 1,115,116
 724 59 724 59 691.5 67 c 128,-1,117
 659 75 659 75 621 82 c 128,-1,118
 583 89 583 89 551.5 93 c 128,-1,119
 520 97 520 97 500 97 c 256,120,121
 480 97 480 97 449 93 c 128,-1,122
 418 89 418 89 381 82 c 128,-1,123
 344 75 344 75 311 67 c 128,-1,124
 278 59 278 59 259 52 c 1,125,-1
 285 111 l 1,126,127
 303 120 303 120 331.5 129 c 128,-1,128
 360 138 360 138 391 145 c 128,-1,129
 422 152 422 152 450.5 155.5 c 128,-1,130
 479 159 479 159 500 159 c 256,131,132
 521 159 521 159 549 155.5 c 128,-1,133
 577 152 577 152 609 145 c 128,-1,134
 641 138 641 138 669 129.5 c 128,-1,135
 697 121 697 121 715 112 c 1,114,-1
731 202 m 1,136,-1
 716 134 l 1,137,138
 697 143 697 143 670 151.5 c 128,-1,139
 643 160 643 160 610 167 c 128,-1,140
 577 174 577 174 548.5 178 c 128,-1,141
 520 182 520 182 500 182 c 0,142,143
 481 182 481 182 451 178 c 128,-1,144
 421 174 421 174 390 167.5 c 128,-1,145
 359 161 359 161 331 152 c 128,-1,146
 303 143 303 143 284 134 c 1,147,-1
 269 202 l 1,148,149
 316 222 316 222 380 235 c 128,-1,150
 444 248 444 248 500 248 c 256,151,152
 556 248 556 248 619.5 235 c 128,-1,153
 683 222 683 222 731 202 c 1,136,-1
EndSplineSet
EndChar
StartChar: k
Encoding: 107 107 76
Width: 921
Flags: W
Fore
475 650 m 1,0,1
 498 643 498 643 505 622.5 c 128,-1,2
 512 602 512 602 512 569 c 0,3,4
 512 548 512 548 509 522.5 c 128,-1,5
 506 497 506 497 500 459 c 0,6,7
 497 445 497 445 484 412 c 0,8,9
 469 374 469 374 463 352 c 1,10,11
 457 376 457 376 441 415 c 0,12,13
 428 447 428 447 425 459 c 0,14,15
 424 465 424 465 423 476 c 0,16,17
 414 539 414 539 414 569 c 0,18,19
 414 570 414 570 414 574 c 0,20,21
 414 582 414 582 414 583 c 0,22,23
 414 606 414 606 421.5 625 c 128,-1,24
 429 644 429 644 451 650 c 1,25,26
 453 650 453 650 456 651 c 0,27,28
 460 652 460 652 463 652 c 0,29,30
 465 652 465 652 469 651 c 256,31,32
 473 650 473 650 475 650 c 1,0,1
726 74 m 1,33,34
 657 87 657 87 584 93.5 c 128,-1,35
 511 100 511 100 463 100 c 0,36,37
 416 100 416 100 342 93.5 c 128,-1,38
 268 87 268 87 199 74 c 1,39,-1
 198 123 l 1,40,41
 275 135 275 135 349.5 142.5 c 128,-1,42
 424 150 424 150 463 150 c 0,43,44
 503 149 503 149 579 141.5 c 128,-1,45
 655 134 655 134 726 123 c 1,46,-1
 726 74 l 1,33,34
463 76 m 0,47,48
 519 75 519 75 585.5 70 c 128,-1,49
 652 65 652 65 713 55 c 1,50,51
 685 49 685 49 654.5 43.5 c 128,-1,52
 624 38 624 38 589 33 c 128,-1,53
 554 28 554 28 521 25 c 128,-1,54
 488 22 488 22 463 22 c 0,55,56
 439 22 439 22 405.5 25 c 128,-1,57
 372 28 372 28 339 32.5 c 128,-1,58
 306 37 306 37 272.5 43 c 128,-1,59
 239 49 239 49 213 55 c 1,60,61
 271 64 271 64 343 69.5 c 128,-1,62
 415 75 415 75 463 76 c 0,47,48
463 261 m 0,63,64
 478 261 478 261 507.5 258.5 c 128,-1,65
 537 256 537 256 580.5 251 c 128,-1,66
 624 246 624 246 664.5 241 c 128,-1,67
 705 236 705 236 749 230 c 1,68,-1
 730 147 l 1,69,70
 653 159 653 159 577.5 166.5 c 128,-1,71
 502 174 502 174 463 174 c 256,72,73
 424 174 424 174 348.5 166.5 c 128,-1,74
 273 159 273 159 196 147 c 1,75,-1
 176 230 l 1,76,77
 218 236 218 236 259.5 241 c 128,-1,78
 301 246 301 246 345.5 251 c 128,-1,79
 390 256 390 256 418 258.5 c 128,-1,80
 446 261 446 261 463 261 c 0,63,64
842 384 m 0,81,82
 807 340 807 340 788 311.5 c 128,-1,83
 769 283 769 283 757 254 c 1,84,85
 665 266 665 266 600.5 273 c 128,-1,86
 536 280 536 280 479 285 c 1,87,88
 481 303 481 303 483 322 c 256,89,90
 485 341 485 341 487 352 c 1,91,92
 496 376 496 376 509 395.5 c 128,-1,93
 522 415 522 415 543 443 c 0,94,95
 548 450 548 450 555 460 c 1,96,97
 627 517 627 517 672.5 538.5 c 128,-1,98
 718 560 718 560 747 561 c 2,99,-1
 754 561 l 2,100,101
 785 560 785 560 811.5 551 c 128,-1,102
 838 542 838 542 862 509 c 1,103,104
 871 481 871 481 871 462 c 0,105,106
 871 444 871 444 864 426 c 128,-1,107
 857 408 857 408 842 384 c 0,81,82
463 -2 m 0,108,109
 494 -1 494 -1 534.5 3.5 c 128,-1,110
 575 8 575 8 614.5 15 c 128,-1,111
 654 22 654 22 690 29.5 c 128,-1,112
 726 37 726 37 746 43 c 1,113,114
 748 64 748 64 748.5 78.5 c 128,-1,115
 749 93 749 93 749 111 c 0,116,117
 749 136 749 136 757.5 167.5 c 128,-1,118
 766 199 766 199 781 238 c 0,119,120
 794 273 794 273 811 298.5 c 128,-1,121
 828 324 828 324 864 366 c 1,122,123
 882 396 882 396 890 417 c 128,-1,124
 898 438 898 438 898 460 c 0,125,126
 898 484 898 484 886 517 c 1,127,128
 859 556 859 556 827.5 570 c 128,-1,129
 796 584 796 584 747 585 c 0,130,131
 700 584 700 584 642 552 c 128,-1,132
 584 520 584 520 525 459 c 1,133,134
 530 493 530 493 533 520 c 128,-1,135
 536 547 536 547 536 569 c 0,136,137
 536 590 536 590 532 609.5 c 128,-1,138
 528 629 528 629 519 644 c 0,139,140
 510 657 510 657 500.5 664 c 128,-1,141
 491 671 491 671 475 672 c 1,142,-1
 475 719 l 1,143,-1
 528 719 l 1,144,-1
 528 743 l 1,145,-1
 475 743 l 1,146,-1
 475 800 l 1,147,-1
 451 800 l 1,148,-1
 451 743 l 1,149,-1
 399 743 l 1,150,-1
 399 719 l 1,151,-1
 451 719 l 1,152,-1
 451 672 l 1,153,154
 435 671 435 671 425.5 664 c 128,-1,155
 416 657 416 657 407 644 c 0,156,157
 398 630 398 630 394 610.5 c 128,-1,158
 390 591 390 591 390 569 c 0,159,160
 390 520 390 520 401 459 c 1,161,162
 342 520 342 520 284 552 c 128,-1,163
 226 584 226 584 178 585 c 0,164,165
 153 585 153 585 127.5 578.5 c 128,-1,166
 102 572 102 572 79.5 558.5 c 128,-1,167
 57 545 57 545 42 520 c 128,-1,168
 27 495 27 495 26 460 c 0,169,170
 26 440 26 440 32.5 421.5 c 128,-1,171
 39 403 39 403 62 366 c 1,172,173
 99 324 99 324 115.5 298.5 c 128,-1,174
 132 273 132 273 144 238 c 0,175,176
 159 200 159 200 167.5 168 c 128,-1,177
 176 136 176 136 176 111 c 0,178,179
 176 93 176 93 176.5 79 c 128,-1,180
 177 65 177 65 180 43 c 1,181,182
 202 37 202 37 239 29.5 c 128,-1,183
 276 22 276 22 317 14.5 c 128,-1,184
 358 7 358 7 397 2.5 c 128,-1,185
 436 -2 436 -2 463 -2 c 0,108,109
178 561 m 0,186,187
 207 560 207 560 252 538.5 c 128,-1,188
 297 517 297 517 370 460 c 1,189,190
 372 457 372 457 385 441 c 0,191,192
 405 414 405 414 417.5 394.5 c 128,-1,193
 430 375 430 375 439 352 c 1,194,195
 441 341 441 341 444 310 c 0,196,197
 446 286 446 286 446 285 c 1,198,199
 390 280 390 280 325 273 c 128,-1,200
 260 266 260 266 169 254 c 1,201,202
 157 283 157 283 138.5 311.5 c 128,-1,203
 120 340 120 340 84 384 c 0,204,205
 63 415 63 415 57.5 430 c 128,-1,206
 52 445 52 445 51 460 c 0,207,208
 52 492 52 492 67.5 512.5 c 128,-1,209
 83 533 83 533 104 543 c 128,-1,210
 125 553 125 553 144 556.5 c 128,-1,211
 163 560 163 560 178 561 c 0,186,187
EndSplineSet
EndChar
StartChar: l
Encoding: 108 108 77
Width: 897
Flags: W
Fore
421 130 m 1,0,1
 415 122 415 122 411 119 c 128,-1,2
 407 116 407 116 400 113 c 1,3,4
 395 112 395 112 391 110 c 1,5,6
 376 107 376 107 359.5 105.5 c 128,-1,7
 343 104 343 104 288 99 c 0,8,9
 228 93 228 93 201 90 c 0,10,11
 143 84 143 84 103 64 c 128,-1,12
 63 44 63 44 28 7 c 1,13,-1
 101 -63 l 1,14,15
 131 -43 131 -43 156.5 -28 c 128,-1,16
 182 -13 182 -13 200 -10 c 0,17,18
 213 -9 213 -9 251 -5 c 0,19,20
 285 -2 285 -2 322 2 c 128,-1,21
 359 6 359 6 390 10 c 0,22,23
 405 13 405 13 418 19.5 c 128,-1,24
 431 26 431 26 451 40 c 1,25,26
 472 26 472 26 484.5 19.5 c 128,-1,27
 497 13 497 13 512 10 c 0,28,29
 543 6 543 6 568.5 3.5 c 128,-1,30
 594 1 594 1 652 -5 c 0,31,32
 689 -9 689 -9 702 -10 c 0,33,34
 720 -13 720 -13 745.5 -27.5 c 128,-1,35
 771 -42 771 -42 801 -63 c 1,36,-1
 874 7 l 1,37,38
 839 44 839 44 799 64 c 128,-1,39
 759 84 759 84 701 90 c 0,40,41
 674 93 674 93 615 99 c 0,42,43
 575 102 575 102 551 104.5 c 128,-1,44
 527 107 527 107 511 110 c 1,45,46
 507 112 507 112 502 113 c 1,47,48
 496 116 496 116 491 119 c 128,-1,49
 486 122 486 122 481 130 c 1,50,-1
 421 130 l 1,0,1
451 117 m 1,51,52
 458 106 458 106 475.5 97.5 c 128,-1,53
 493 89 493 89 507 86 c 0,54,55
 522 83 522 83 544.5 80.5 c 128,-1,56
 567 78 567 78 617 74 c 0,57,58
 678 69 678 69 701 66 c 0,59,60
 777 59 777 59 839 8 c 1,61,-1
 798 -29 l 1,62,63
 764 -6 764 -6 744.5 2 c 128,-1,64
 725 10 725 10 701 14 c 0,65,66
 689 16 689 16 665.5 18.5 c 128,-1,67
 642 21 642 21 613.5 24 c 128,-1,68
 585 27 585 27 561.5 29.5 c 128,-1,69
 538 32 538 32 511 34 c 0,70,71
 488 38 488 38 451 64 c 1,72,73
 415 38 415 38 391 34 c 0,74,75
 364 32 364 32 341.5 29.5 c 128,-1,76
 319 27 319 27 294 24.5 c 128,-1,77
 269 22 269 22 241 19 c 128,-1,78
 213 16 213 16 201 14 c 0,79,80
 177 10 177 10 157.5 2 c 128,-1,81
 138 -6 138 -6 104 -29 c 1,82,-1
 63 8 l 1,83,84
 125 59 125 59 201 66 c 0,85,86
 224 69 224 69 285 74 c 0,87,88
 324 77 324 77 352.5 80 c 128,-1,89
 381 83 381 83 395 86 c 256,90,91
 409 89 409 89 426.5 97.5 c 128,-1,92
 444 106 444 106 451 117 c 1,51,52
451 722 m 256,93,94
 438 722 438 722 427.5 732 c 128,-1,95
 417 742 417 742 417 754 c 256,96,97
 417 766 417 766 427.5 776 c 128,-1,98
 438 786 438 786 451 786 c 256,99,100
 464 786 464 786 474.5 776 c 128,-1,101
 485 766 485 766 485 754 c 256,102,103
 485 742 485 742 474.5 732 c 128,-1,104
 464 722 464 722 451 722 c 256,93,94
451 700 m 256,105,106
 473 700 473 700 491 717 c 128,-1,107
 509 734 509 734 509 754 c 256,108,109
 509 774 509 774 491 791 c 128,-1,110
 473 808 473 808 451 808 c 256,111,112
 429 808 429 808 411 791 c 128,-1,113
 393 774 393 774 393 754 c 256,114,115
 393 734 393 734 411 717 c 128,-1,116
 429 700 429 700 451 700 c 256,105,106
451 130 m 0,117,118
 469 130 469 130 478 131 c 0,119,120
 513 134 513 134 549 145.5 c 128,-1,121
 585 157 585 157 631 180 c 1,122,-1
 601 300 l 1,123,124
 647 327 647 327 667 361 c 128,-1,125
 687 395 687 395 687 431 c 0,126,127
 687 451 687 451 681 470 c 1,128,129
 665 496 665 496 641 520 c 128,-1,130
 617 544 617 544 581 574 c 0,131,132
 559 592 559 592 551 600 c 2,133,-1
 451 700 l 1,134,-1
 351 600 l 2,135,136
 343 592 343 592 321 574 c 0,137,138
 285 544 285 544 261 520 c 128,-1,139
 237 496 237 496 221 470 c 1,140,141
 216 451 216 451 216 431 c 0,142,143
 216 396 216 396 235.5 361.5 c 128,-1,144
 255 327 255 327 301 300 c 1,145,-1
 271 180 l 1,146,147
 318 157 318 157 354.5 145.5 c 128,-1,148
 391 134 391 134 425 131 c 0,149,150
 434 130 434 130 451 130 c 0,117,118
526 510 m 1,151,-1
 471 510 l 1,152,-1
 471 565 l 1,153,-1
 431 565 l 1,154,-1
 431 510 l 1,155,-1
 376 510 l 1,156,-1
 376 470 l 1,157,-1
 431 470 l 1,158,-1
 431 415 l 1,159,-1
 471 415 l 1,160,-1
 471 470 l 1,161,-1
 526 470 l 1,162,-1
 526 510 l 1,151,-1
583 310 m 1,163,164
 557 321 557 321 517 326.5 c 128,-1,165
 477 332 477 332 451 332 c 0,166,167
 424 332 424 332 386 326.5 c 128,-1,168
 348 321 348 321 321 310 c 1,169,170
 280 336 280 336 260 368.5 c 128,-1,171
 240 401 240 401 240 434 c 0,172,173
 240 453 240 453 246 470 c 1,174,175
 260 489 260 489 282.5 510 c 128,-1,176
 305 531 305 531 338 559 c 0,177,178
 369 586 369 586 379 596 c 2,179,-1
 452 670 l 1,180,-1
 525 596 l 2,181,182
 535 586 535 586 566 559 c 0,183,184
 602 528 602 528 623 508.5 c 128,-1,185
 644 489 644 489 658 470 c 1,186,187
 664 453 664 453 664 435 c 0,188,189
 664 401 664 401 644 368.5 c 128,-1,190
 624 336 624 336 583 310 c 1,163,164
591 185 m 1,191,192
 560 172 560 172 533 164.5 c 128,-1,193
 506 157 506 157 479 155 c 2,194,-1
 423 155 l 2,195,196
 371 159 371 159 312 184 c 1,197,198
 362 211 362 211 451 211 c 0,199,200
 539 211 539 211 591 185 c 1,191,192
599 207 m 1,201,202
 541 236 541 236 451 236 c 0,203,204
 363 236 363 236 303 206 c 1,205,-1
 324 288 l 1,206,207
 358 298 358 298 393 302.5 c 128,-1,208
 428 307 428 307 451 307 c 256,209,210
 474 307 474 307 509 302.5 c 128,-1,211
 544 298 544 298 578 288 c 1,212,-1
 599 207 l 1,201,202
EndSplineSet
EndChar
StartChar: s
Encoding: 115 115 84
Width: 911
Flags: W
Fore
192 530 m 1,0,1
 227 534 227 534 252 548 c 128,-1,2
 277 562 277 562 293 582 c 0,3,4
 304 593 304 593 304 610 c 1,5,6
 297 617 297 617 288 617 c 0,7,8
 286 617 286 617 284 616 c 1,9,10
 281 616 281 616 279 616 c 1,11,12
 258 609 258 609 248 602.5 c 128,-1,13
 238 596 238 596 227 583 c 0,14,15
 220 574 220 574 215.5 567 c 128,-1,16
 211 560 211 560 198 539 c 2,17,-1
 192 530 l 1,0,1
244 695 m 1,18,-1
 237 780 l 1,19,-1
 342 719 l 1,20,-1
 405 790 l 1,21,-1
 447 690 l 1,22,23
 478 706 478 706 517 706 c 0,24,25
 553 706 553 706 588 693 c 128,-1,26
 623 680 623 680 649 658 c 0,27,28
 671 640 671 640 695 610 c 128,-1,29
 719 580 719 580 742 543 c 128,-1,30
 765 506 765 506 782.5 467 c 128,-1,31
 800 428 800 428 808 393 c 0,32,33
 836 292 836 292 849.5 197.5 c 128,-1,34
 863 103 863 103 867 -1 c 1,35,-1
 297 -1 l 1,36,37
 299 16 299 16 304 38 c 0,38,39
 308 54 308 54 308 60 c 1,40,41
 323 86 323 86 344 107.5 c 128,-1,42
 365 129 365 129 395 155 c 0,43,44
 422 179 422 179 427 186 c 0,45,46
 454 233 454 233 466.5 293 c 128,-1,47
 479 353 479 353 479 420 c 0,48,49
 479 426 479 426 478 437 c 0,50,51
 478 453 l 1,52,53
 455 441 455 441 421 418 c 0,54,55
 385 394 385 394 365 387 c 0,56,57
 290 362 290 362 238 304 c 1,58,59
 233 295 233 295 218 270 c 0,60,61
 205 249 205 249 198 237 c 128,-1,62
 191 225 191 225 180 204 c 256,63,64
 169 183 169 183 161 183 c 0,65,66
 157 183 157 183 153 189 c 1,67,68
 153 190 l 1,69,70
 146 206 146 206 145 218 c 1,71,72
 126 223 126 223 102 223 c 0,73,74
 64 228 64 228 57 261 c 0,75,76
 54 278 54 278 54 290 c 0,77,78
 54 304 54 304 57 321 c 0,79,80
 65 346 65 346 83 384 c 128,-1,81
 101 422 101 422 127 473 c 0,82,83
 147 514 147 514 156.5 534.5 c 128,-1,84
 166 555 166 555 167 561 c 1,85,86
 164 570 164 570 164 580 c 0,87,88
 164 592 164 592 167 600 c 1,89,90
 181 614 181 614 188.5 624 c 128,-1,91
 196 634 196 634 205 650 c 1,92,93
 232 678 232 678 244 695 c 1,18,-1
87 277 m 1,94,95
 93 278 93 278 106 284.5 c 128,-1,96
 119 291 119 291 128 299 c 2,97,98
 140 306 140 306 145 311.5 c 128,-1,99
 150 317 150 317 152 327 c 0,100,101
 152 328 152 328 153 329 c 1,102,103
 153 331 153 331 153 332 c 0,104,105
 153 338 153 338 147.5 345 c 128,-1,106
 142 352 142 352 135 355 c 1,107,108
 120 352 120 352 106.5 340 c 128,-1,109
 93 328 93 328 87 310 c 2,110,111
 84 304 84 304 84 297 c 256,112,113
 84 290 84 290 87 277 c 1,94,95
462 720 m 1,114,-1
 413 829 l 1,115,-1
 337 750 l 1,116,-1
 212 825 l 1,117,-1
 222 700 l 1,118,119
 206 688 206 688 183 651 c 1,120,-1
 182 650 l 1,121,122
 176 642 176 642 163 627 c 0,123,124
 151 612 151 612 142 600 c 1,125,126
 138 591 138 591 138 581 c 0,127,128
 138 570 138 570 142 560 c 1,129,130
 141 554 141 554 130.5 531.5 c 128,-1,131
 120 509 120 509 102 472 c 0,132,133
 73 414 73 414 57 380 c 128,-1,134
 41 346 41 346 32 320 c 1,135,136
 29 303 29 303 29 289 c 0,137,138
 29 277 29 277 32 260 c 0,139,140
 37 234 37 234 51 220 c 128,-1,141
 65 206 65 206 102 200 c 0,142,143
 113 198 113 198 119 198 c 256,144,145
 125 198 125 198 132 200 c 1,146,147
 132 187 132 187 137 175 c 1,148,149
 147 162 147 162 161 162 c 0,150,151
 177 162 177 162 187 180 c 1,152,153
 211 205 211 205 222.5 222.5 c 128,-1,154
 234 240 234 240 252 280 c 1,155,156
 274 309 274 309 305 328.5 c 128,-1,157
 336 348 336 348 372 360 c 0,158,159
 397 369 397 369 432 396 c 0,160,161
 446 407 446 407 452 410 c 1,162,163
 452 361 452 361 438 298.5 c 128,-1,164
 424 236 424 236 397 195 c 0,165,166
 391 183 391 183 358 153 c 0,167,168
 331 129 331 129 312.5 109 c 128,-1,169
 294 89 294 89 282 65 c 0,170,171
 271 43 271 43 271 6 c 0,172,173
 271 1 271 1 271 -9 c 0,174,175
 272 -20 272 -20 272 -25 c 1,176,-1
 892 -25 l 1,177,178
 889 91 889 91 875 192.5 c 128,-1,179
 861 294 861 294 832 400 c 0,180,181
 823 437 823 437 804.5 478 c 128,-1,182
 786 519 786 519 761.5 558 c 128,-1,183
 737 597 737 597 711 629 c 128,-1,184
 685 661 685 661 662 680 c 0,185,186
 634 704 634 704 594.5 718.5 c 128,-1,187
 555 733 555 733 518 733 c 0,188,189
 485 733 485 733 462 720 c 1,114,-1
EndSplineSet
EndChar
StartChar: t
Encoding: 116 116 85
Width: 699
Flags: W
Fore
643 760 m 1,0,-1
 528 760 l 1,1,-1
 528 700 l 1,2,-1
 423 700 l 1,3,-1
 423 760 l 1,4,-1
 283 760 l 1,5,-1
 283 700 l 1,6,-1
 178 700 l 1,7,-1
 178 760 l 1,8,-1
 63 760 l 1,9,-1
 63 625 l 1,10,-1
 163 550 l 1,11,-1
 163 250 l 1,12,-1
 78 160 l 1,13,-1
 78 80 l 1,14,-1
 28 80 l 1,15,-1
 28 0 l 1,16,-1
 678 0 l 1,17,-1
 678 80 l 1,18,-1
 628 80 l 1,19,-1
 628 160 l 1,20,-1
 543 250 l 1,21,-1
 543 550 l 1,22,-1
 643 625 l 1,23,-1
 643 760 l 1,0,-1
654 24 m 1,24,-1
 52 24 l 1,25,-1
 52 56 l 1,26,-1
 102 56 l 1,27,-1
 654 56 l 1,28,-1
 654 24 l 1,24,-1
604 80 m 1,29,-1
 102 80 l 1,30,-1
 102 142 l 1,31,-1
 604 142 l 1,32,-1
 604 80 l 1,29,-1
587 166 m 1,33,-1
 119 166 l 1,34,-1
 181 232 l 1,35,-1
 525 232 l 1,36,-1
 587 166 l 1,33,-1
519 256 m 1,37,-1
 187 256 l 1,38,-1
 187 544 l 1,39,-1
 519 544 l 1,40,-1
 519 256 l 1,37,-1
527 568 m 1,41,-1
 187 568 l 1,42,-1
 179 568 l 1,43,-1
 111 619 l 1,44,-1
 595 619 l 1,45,-1
 527 568 l 1,41,-1
619 643 m 1,46,-1
 87 643 l 1,47,-1
 87 736 l 1,48,-1
 154 736 l 1,49,-1
 154 676 l 1,50,-1
 307 676 l 1,51,-1
 307 736 l 1,52,-1
 399 736 l 1,53,-1
 399 676 l 1,54,-1
 552 676 l 1,55,-1
 552 736 l 1,56,-1
 619 736 l 1,57,-1
 619 643 l 1,46,-1
EndSplineSet
EndChar
StartChar: quotedbl
Encoding: 34 34 198
Width: 573
Flags: W
Fore
61 561 m 1,0,-1
 6 561 l 1,1,-1
 6 0 l 1,2,-1
 61 0 l 1,3,-1
 567 0 l 1,4,-1
 567 55 l 1,5,-1
 61 55 l 1,6,-1
 61 561 l 1,0,-1
EndSplineSet
EndChar
StartChar: exclam
Encoding: 33 33 199
Width: 768
Flags: W
Fore
361 577 m 1,0,-1
 361 357 l 1,1,-1
 140 357 l 1,2,-1
 140 303 l 1,3,-1
 361 303 l 1,4,-1
 361 80 l 1,5,-1
 415 80 l 1,6,-1
 415 303 l 1,7,-1
 638 303 l 1,8,-1
 638 357 l 1,9,-1
 415 357 l 1,10,-1
 415 577 l 1,11,-1
 361 577 l 1,0,-1
96 330 m 256,12,13
 96 389 96 389 118.5 442.5 c 128,-1,14
 141 496 141 496 181.5 536.5 c 128,-1,15
 222 577 222 577 275.5 599.5 c 128,-1,16
 329 622 329 622 388 622 c 256,17,18
 447 622 447 622 500.5 599.5 c 128,-1,19
 554 577 554 577 594.5 536.5 c 128,-1,20
 635 496 635 496 657.5 442.5 c 128,-1,21
 680 389 680 389 680 330 c 256,22,23
 680 271 680 271 657.5 217.5 c 128,-1,24
 635 164 635 164 594.5 123.5 c 128,-1,25
 554 83 554 83 500.5 60.5 c 128,-1,26
 447 38 447 38 388 38 c 256,27,28
 329 38 329 38 275.5 60.5 c 128,-1,29
 222 83 222 83 181.5 123.5 c 128,-1,30
 141 164 141 164 118.5 217.5 c 128,-1,31
 96 271 96 271 96 330 c 256,12,13
43 330 m 256,32,33
 43 260 43 260 69.5 197 c 128,-1,34
 96 134 96 134 144 86 c 128,-1,35
 192 38 192 38 255 11.5 c 128,-1,36
 318 -15 318 -15 388 -15 c 256,37,38
 458 -15 458 -15 521 11.5 c 128,-1,39
 584 38 584 38 632 86 c 128,-1,40
 680 134 680 134 706.5 197 c 128,-1,41
 733 260 733 260 733 330 c 256,42,43
 733 400 733 400 706.5 463 c 128,-1,44
 680 526 680 526 632 574 c 128,-1,45
 584 622 584 622 521 648.5 c 128,-1,46
 458 675 458 675 388 675 c 256,47,48
 318 675 318 675 255 648.5 c 128,-1,49
 192 622 192 622 144 574 c 128,-1,50
 96 526 96 526 69.5 463 c 128,-1,51
 43 400 43 400 43 330 c 256,32,33
EndSplineSet
EndChar
